<svg width="22" height="22" viewBox="0 0 22 22" fill="none" xmlns="http://www.w3.org/2000/svg">
<path fill-rule="evenodd" clip-rule="evenodd" d="M4.5 2C3.67157 2 3 2.67157 3 3.5V8.1529C9.23018 9.11491 14 14.5004 14 21H21V2H4.5Z" fill="#1D6BF5"/>
<path fill-rule="evenodd" clip-rule="evenodd" d="M2.5 1.5H19.5C20.0523 1.5 20.5 1.94772 20.5 2.5V19.5C20.5 20.0523 20.0523 20.5 19.5 20.5H13.9906C13.9968 20.6659 14 20.8326 14 21C14 21.3365 13.9872 21.67 13.9621 22H19.5C20.8807 22 22 20.8807 22 19.5V2.5C22 1.11929 20.8807 0 19.5 0H2.5C1.11929 0 0 1.11929 0 2.5V8.03789C0.330042 8.01278 0.663528 8 1 8C1.16742 8 1.33411 8.00317 1.5 8.00944V2.5C1.5 1.94772 1.94772 1.5 2.5 1.5Z" fill="#424242"/>
<path fill-rule="evenodd" clip-rule="evenodd" d="M2.5 1.5H19.5C20.0523 1.5 20.5 1.94772 20.5 2.5V19.5C20.5 20.0523 20.0523 20.5 19.5 20.5H13.9906C13.9968 20.6659 14 20.8326 14 21C14 21.3365 13.9872 21.67 13.9621 22H19.5C20.8807 22 22 20.8807 22 19.5V2.5C22 1.11929 20.8807 0 19.5 0H2.5C1.11929 0 0 1.11929 0 2.5V8.03789C0.330042 8.01278 0.663528 8 1 8C1.16742 8 1.33411 8.00317 1.5 8.00944V2.5C1.5 1.94772 1.94772 1.5 2.5 1.5Z" fill="black" fill-opacity="0.2"/>
<path fill-rule="evenodd" clip-rule="evenodd" d="M2.5 1.5H19.5C20.0523 1.5 20.5 1.94772 20.5 2.5V19.5C20.5 20.0523 20.0523 20.5 19.5 20.5H13.9906C13.9968 20.6659 14 20.8326 14 21C14 21.3365 13.9872 21.67 13.9621 22H19.5C20.8807 22 22 20.8807 22 19.5V2.5C22 1.11929 20.8807 0 19.5 0H2.5C1.11929 0 0 1.11929 0 2.5V8.03789C0.330042 8.01278 0.663528 8 1 8C1.16742 8 1.33411 8.00317 1.5 8.00944V2.5C1.5 1.94772 1.94772 1.5 2.5 1.5Z" fill="black" fill-opacity="0.2"/>
<path fill-rule="evenodd" clip-rule="evenodd" d="M2.5 1.5H19.5C20.0523 1.5 20.5 1.94772 20.5 2.5V19.5C20.5 20.0523 20.0523 20.5 19.5 20.5H13.9906C13.9968 20.6659 14 20.8326 14 21C14 21.3365 13.9872 21.67 13.9621 22H19.5C20.8807 22 22 20.8807 22 19.5V2.5C22 1.11929 20.8807 0 19.5 0H2.5C1.11929 0 0 1.11929 0 2.5V8.03789C0.330042 8.01278 0.663528 8 1 8C1.16742 8 1.33411 8.00317 1.5 8.00944V2.5C1.5 1.94772 1.94772 1.5 2.5 1.5Z" fill="black" fill-opacity="0.2"/>
<path fill-rule="evenodd" clip-rule="evenodd" d="M2.5 1.5H19.5C20.0523 1.5 20.5 1.94772 20.5 2.5V19.5C20.5 20.0523 20.0523 20.5 19.5 20.5H13.9906C13.9968 20.6659 14 20.8326 14 21C14 21.3365 13.9872 21.67 13.9621 22H19.5C20.8807 22 22 20.8807 22 19.5V2.5C22 1.11929 20.8807 0 19.5 0H2.5C1.11929 0 0 1.11929 0 2.5V8.03789C0.330042 8.01278 0.663528 8 1 8C1.16742 8 1.33411 8.00317 1.5 8.00944V2.5C1.5 1.94772 1.94772 1.5 2.5 1.5Z" fill="black" fill-opacity="0.2"/>
<path fill-rule="evenodd" clip-rule="evenodd" d="M2.5 1.5H19.5C20.0523 1.5 20.5 1.94772 20.5 2.5V19.5C20.5 20.0523 20.0523 20.5 19.5 20.5H13.9906C13.9968 20.6659 14 20.8326 14 21C14 21.3365 13.9872 21.67 13.9621 22H19.5C20.8807 22 22 20.8807 22 19.5V2.5C22 1.11929 20.8807 0 19.5 0H2.5C1.11929 0 0 1.11929 0 2.5V8.03789C0.330042 8.01278 0.663528 8 1 8C1.16742 8 1.33411 8.00317 1.5 8.00944V2.5C1.5 1.94772 1.94772 1.5 2.5 1.5Z" fill="black" fill-opacity="0.2"/>
<path fill-rule="evenodd" clip-rule="evenodd" d="M2.5 1.5H19.5C20.0523 1.5 20.5 1.94772 20.5 2.5V19.5C20.5 20.0523 20.0523 20.5 19.5 20.5H13.9906C13.9968 20.6659 14 20.8326 14 21C14 21.3365 13.9872 21.67 13.9621 22H19.5C20.8807 22 22 20.8807 22 19.5V2.5C22 1.11929 20.8807 0 19.5 0H2.5C1.11929 0 0 1.11929 0 2.5V8.03789C0.330042 8.01278 0.663528 8 1 8C1.16742 8 1.33411 8.00317 1.5 8.00944V2.5C1.5 1.94772 1.94772 1.5 2.5 1.5Z" fill="black" fill-opacity="0.2"/>
<path d="M4 19.5C4 18.6716 3.32843 18 2.5 18C1.67157 18 1 18.6716 1 19.5C1 20.3284 1.67157 21 2.5 21C3.32843 21 4 20.3284 4 19.5Z" fill="black"/>
<path fill-rule="evenodd" clip-rule="evenodd" d="M0.25 15C0.25 14.5858 0.585786 14.25 1 14.25C2.12002 14.25 3.78335 14.5798 5.18823 15.5913C6.63135 16.6304 7.75 18.3556 7.75 21C7.75 21.4142 7.41421 21.75 7 21.75C6.58579 21.75 6.25 21.4142 6.25 21C6.25 18.8444 5.36865 17.5696 4.31177 16.8087C3.21665 16.0202 1.87998 15.75 1 15.75C0.585786 15.75 0.25 15.4142 0.25 15Z" fill="#212121"/>
<path fill-rule="evenodd" clip-rule="evenodd" d="M0.25 11C0.25 10.5858 0.585786 10.25 1 10.25C2.97668 10.25 5.64224 10.917 7.83081 12.5919C10.05 14.2902 11.75 17.0067 11.75 21C11.75 21.4142 11.4142 21.75 11 21.75C10.5858 21.75 10.25 21.4142 10.25 21C10.25 17.4933 8.78337 15.2098 6.91919 13.7831C5.02443 12.333 2.68999 11.75 1 11.75C0.585786 11.75 0.25 11.4142 0.25 11Z" fill="black"/>
<circle cx="0.75" cy="7.9502" r="0.75" fill="#424242"/>
<circle cx="0.75" cy="7.9502" r="0.75" fill="black" fill-opacity="0.2"/>
<circle cx="0.75" cy="7.9502" r="0.75" fill="black" fill-opacity="0.2"/>
<circle cx="0.75" cy="7.9502" r="0.75" fill="black" fill-opacity="0.2"/>
<circle cx="0.75" cy="7.9502" r="0.75" fill="black" fill-opacity="0.2"/>
<circle cx="0.75" cy="7.9502" r="0.75" fill="black" fill-opacity="0.2"/>
<circle cx="0.75" cy="7.9502" r="0.75" fill="black" fill-opacity="0.2"/>
<circle cx="14" cy="21.25" r="0.75" fill="#424242"/>
<circle cx="14" cy="21.25" r="0.75" fill="black" fill-opacity="0.2"/>
<circle cx="14" cy="21.25" r="0.75" fill="black" fill-opacity="0.2"/>
<circle cx="14" cy="21.25" r="0.75" fill="black" fill-opacity="0.2"/>
<circle cx="14" cy="21.25" r="0.75" fill="black" fill-opacity="0.2"/>
<circle cx="14" cy="21.25" r="0.75" fill="black" fill-opacity="0.2"/>
<circle cx="14" cy="21.25" r="0.75" fill="black" fill-opacity="0.2"/>
</svg>
