<svg width="22" height="22" viewBox="0 0 22 22" fill="none" xmlns="http://www.w3.org/2000/svg">
<path fill-rule="evenodd" clip-rule="evenodd" d="M9.92275 0.048762C8.8752 0.147254 7.52607 0.506281 6.5218 0.953712C4.01755 2.06954 1.98444 4.12099 0.916714 6.60933C-0.768559 10.5369 -0.0995667 14.9509 2.67113 18.1847C5.22394 21.1642 9.26403 22.5619 13.1095 21.796C16.6846 21.084 19.6738 18.6847 21.0832 15.396C22.7575 11.4889 22.1097 7.11486 19.3762 3.86977C17.0855 1.15042 13.5224 -0.289769 9.92275 0.048762ZM10.2437 1.49101C10.1681 1.50142 9.92046 1.5332 9.69348 1.56163C8.7579 1.67883 7.74373 1.99109 6.80201 2.45195C4.88972 3.38781 3.37085 4.90677 2.44751 6.80668C2.00751 7.71209 1.75105 8.51699 1.57048 9.55982C1.45984 10.1985 1.45984 11.8059 1.57048 12.4446C1.7516 13.4905 2.00861 14.296 2.44884 15.1977C4.54399 19.4891 9.48953 21.5536 14.0378 20.0355C18.7425 18.4651 21.4601 13.4784 20.2381 8.6578C19.5505 5.94506 17.7021 3.66939 15.1958 2.4498C14.2934 2.01066 13.4677 1.74719 12.4669 1.57905C12.0555 1.50991 10.5418 1.44998 10.2437 1.49101ZM10.3583 4.4255C10.2953 4.4365 10.089 4.46846 9.89982 4.49643C8.62502 4.68507 7.32959 5.35847 6.34348 6.34513C5.40588 7.28323 4.8065 8.38333 4.5295 9.67445C4.39313 10.31 4.38002 11.5908 4.50355 12.2068C4.77399 13.5552 5.3841 14.7002 6.34321 15.6593C7.30249 16.6186 8.44968 17.2297 9.79574 17.4986C10.3545 17.6102 11.6461 17.6102 12.2048 17.4986C13.5509 17.2297 14.6981 16.6186 15.6574 15.6593C16.6167 14.7 17.2278 13.5528 17.4967 12.2068C17.6087 11.6463 17.6083 10.3565 17.4961 9.79417C17.2264 8.44353 16.626 7.31812 15.6559 6.34504C14.7177 5.40386 13.6234 4.8069 12.3391 4.53568C11.9128 4.44563 10.6458 4.37515 10.3583 4.4255ZM10.2969 5.91393C8.96988 6.12311 7.80229 6.7899 6.99106 7.80196C6.58155 8.31285 6.18492 9.12179 6.01779 9.78711C5.90774 10.225 5.89096 10.3821 5.89027 10.9793C5.88981 11.3684 5.91499 11.7865 5.94828 11.9422C6.3676 13.9042 7.72915 15.3963 9.58399 15.9265C10.8604 16.2913 12.0725 16.1801 13.27 15.5882C16.3204 14.0806 17.0768 10.1678 14.819 7.57513C14.1558 6.81356 13.0985 6.20546 12.0383 5.97578C11.6436 5.89027 10.6671 5.8556 10.2969 5.91393ZM10.4622 7.40469C9.6529 7.62263 9.0117 8.29795 8.84287 9.11019C8.72993 9.65363 8.85663 10.2583 9.18796 10.7574L9.35051 11.0022L9.18796 11.2471C8.58765 12.1512 8.70724 13.3038 9.47756 14.0385C10.3552 14.8757 11.6428 14.8781 12.517 14.0443C13.2925 13.3046 13.4142 12.1531 12.8126 11.2471L12.6501 11.0022L12.8126 10.7574C13.3994 9.87354 13.3049 8.78339 12.5751 8.0182C12.0339 7.45077 11.1952 7.20725 10.4622 7.40469ZM10.7 8.86579C10.3962 8.99808 10.2217 9.34977 10.287 9.69797C10.3277 9.91458 10.6206 10.2075 10.8372 10.2482C11.1047 10.2984 11.3098 10.2342 11.5047 10.0393C12.0724 9.47155 11.4369 8.54478 10.7 8.86579ZM10.6876 11.8104C10.1958 12.0611 10.1344 12.7175 10.5714 13.0509C11.0096 13.3851 11.6594 13.099 11.7219 12.5445C11.7835 11.9976 11.1718 11.5634 10.6876 11.8104Z" fill="#9E9E9E"/>
<mask id="mask0_2337_157283" style="mask-type:alpha" maskUnits="userSpaceOnUse" x="4" y="4" width="14" height="14">
<circle cx="11" cy="11" r="7" fill="#9E9E9E"/>
</mask>
<g mask="url(#mask0_2337_157283)">
<path fill-rule="evenodd" clip-rule="evenodd" d="M9.92275 0.048762C8.8752 0.147254 7.52607 0.506281 6.5218 0.953712C4.01755 2.06954 1.98444 4.12099 0.916714 6.60933C-0.768559 10.5369 -0.0995667 14.9509 2.67113 18.1847C5.22394 21.1642 9.26403 22.5619 13.1095 21.796C16.6846 21.084 19.6738 18.6847 21.0832 15.396C22.7575 11.4889 22.1097 7.11486 19.3762 3.86977C17.0855 1.15042 13.5224 -0.289769 9.92275 0.048762ZM10.2437 1.49101C10.1681 1.50142 9.92046 1.5332 9.69348 1.56163C8.7579 1.67883 7.74373 1.99109 6.80201 2.45195C4.88972 3.38781 3.37085 4.90677 2.44751 6.80668C2.00751 7.71209 1.75105 8.51699 1.57048 9.55982C1.45984 10.1985 1.45984 11.8059 1.57048 12.4446C1.7516 13.4905 2.00861 14.296 2.44884 15.1977C4.54399 19.4891 9.48953 21.5536 14.0378 20.0355C18.7425 18.4651 21.4601 13.4784 20.2381 8.6578C19.5505 5.94506 17.7021 3.66939 15.1958 2.4498C14.2934 2.01066 13.4677 1.74719 12.4669 1.57905C12.0555 1.50991 10.5418 1.44998 10.2437 1.49101ZM10.3583 4.4255C10.2953 4.4365 10.089 4.46846 9.89982 4.49643C8.62502 4.68507 7.32959 5.35847 6.34348 6.34513C5.40588 7.28323 4.8065 8.38333 4.5295 9.67445C4.39313 10.31 4.38002 11.5908 4.50355 12.2068C4.77399 13.5552 5.3841 14.7002 6.34321 15.6593C7.30249 16.6186 8.44968 17.2297 9.79574 17.4986C10.3545 17.6102 11.6461 17.6102 12.2048 17.4986C13.5509 17.2297 14.6981 16.6186 15.6574 15.6593C16.6167 14.7 17.2278 13.5528 17.4967 12.2068C17.6087 11.6463 17.6083 10.3565 17.4961 9.79417C17.2264 8.44353 16.626 7.31812 15.6559 6.34504C14.7177 5.40386 13.6234 4.8069 12.3391 4.53568C11.9128 4.44563 10.6458 4.37515 10.3583 4.4255ZM10.2969 5.91393C8.96988 6.12311 7.80229 6.7899 6.99106 7.80196C6.58155 8.31285 6.18492 9.12179 6.01779 9.78711C5.90774 10.225 5.89096 10.3821 5.89027 10.9793C5.88981 11.3684 5.91499 11.7865 5.94828 11.9422C6.3676 13.9042 7.72915 15.3963 9.58399 15.9265C10.8604 16.2913 12.0725 16.1801 13.27 15.5882C16.3204 14.0806 17.0768 10.1678 14.819 7.57513C14.1558 6.81356 13.0985 6.20546 12.0383 5.97578C11.6436 5.89027 10.6671 5.8556 10.2969 5.91393ZM10.4622 7.40469C9.6529 7.62263 9.0117 8.29795 8.84287 9.11019C8.72993 9.65363 8.85663 10.2583 9.18796 10.7574L9.35051 11.0022L9.18796 11.2471C8.58765 12.1512 8.70724 13.3038 9.47756 14.0385C10.3552 14.8757 11.6428 14.8781 12.517 14.0443C13.2925 13.3046 13.4142 12.1531 12.8126 11.2471L12.6501 11.0022L12.8126 10.7574C13.3994 9.87354 13.3049 8.78339 12.5751 8.0182C12.0339 7.45077 11.1952 7.20725 10.4622 7.40469ZM10.7 8.86579C10.3962 8.99808 10.2217 9.34977 10.287 9.69797C10.3277 9.91458 10.6206 10.2075 10.8372 10.2482C11.1047 10.2984 11.3098 10.2342 11.5047 10.0393C12.0724 9.47155 11.4369 8.54478 10.7 8.86579ZM10.6876 11.8104C10.1958 12.0611 10.1344 12.7175 10.5714 13.0509C11.0096 13.3851 11.6594 13.099 11.7219 12.5445C11.7835 11.9976 11.1718 11.5634 10.6876 11.8104Z" fill="#9E9E9E"/>
</g>
<mask id="mask1_2337_157283" style="mask-type:alpha" maskUnits="userSpaceOnUse" x="7" y="7" width="8" height="8">
<circle cx="11" cy="11" r="4" fill="#D9D9D9"/>
</mask>
<g mask="url(#mask1_2337_157283)">
<path fill-rule="evenodd" clip-rule="evenodd" d="M9.92275 0.048762C8.8752 0.147254 7.52607 0.506281 6.5218 0.953712C4.01755 2.06954 1.98444 4.12099 0.916714 6.60933C-0.768559 10.5369 -0.0995667 14.9509 2.67113 18.1847C5.22394 21.1642 9.26403 22.5619 13.1095 21.796C16.6846 21.084 19.6738 18.6847 21.0832 15.396C22.7575 11.4889 22.1097 7.11486 19.3762 3.86977C17.0855 1.15042 13.5224 -0.289769 9.92275 0.048762ZM10.2437 1.49101C10.1681 1.50142 9.92046 1.5332 9.69348 1.56163C8.7579 1.67883 7.74373 1.99109 6.80201 2.45195C4.88972 3.38781 3.37085 4.90677 2.44751 6.80668C2.00751 7.71209 1.75105 8.51699 1.57048 9.55982C1.45984 10.1985 1.45984 11.8059 1.57048 12.4446C1.7516 13.4905 2.00861 14.296 2.44884 15.1977C4.54399 19.4891 9.48953 21.5536 14.0378 20.0355C18.7425 18.4651 21.4601 13.4784 20.2381 8.6578C19.5505 5.94506 17.7021 3.66939 15.1958 2.4498C14.2934 2.01066 13.4677 1.74719 12.4669 1.57905C12.0555 1.50991 10.5418 1.44998 10.2437 1.49101ZM10.3583 4.4255C10.2953 4.4365 10.089 4.46846 9.89982 4.49643C8.62502 4.68507 7.32959 5.35847 6.34348 6.34513C5.40588 7.28323 4.8065 8.38333 4.5295 9.67445C4.39313 10.31 4.38002 11.5908 4.50355 12.2068C4.77399 13.5552 5.3841 14.7002 6.34321 15.6593C7.30249 16.6186 8.44968 17.2297 9.79574 17.4986C10.3545 17.6102 11.6461 17.6102 12.2048 17.4986C13.5509 17.2297 14.6981 16.6186 15.6574 15.6593C16.6167 14.7 17.2278 13.5528 17.4967 12.2068C17.6087 11.6463 17.6083 10.3565 17.4961 9.79417C17.2264 8.44353 16.626 7.31812 15.6559 6.34504C14.7177 5.40386 13.6234 4.8069 12.3391 4.53568C11.9128 4.44563 10.6458 4.37515 10.3583 4.4255ZM10.2969 5.91393C8.96988 6.12311 7.80229 6.7899 6.99106 7.80196C6.58155 8.31285 6.18492 9.12179 6.01779 9.78711C5.90774 10.225 5.89096 10.3821 5.89027 10.9793C5.88981 11.3684 5.91499 11.7865 5.94828 11.9422C6.3676 13.9042 7.72915 15.3963 9.58399 15.9265C10.8604 16.2913 12.0725 16.1801 13.27 15.5882C16.3204 14.0806 17.0768 10.1678 14.819 7.57513C14.1558 6.81356 13.0985 6.20546 12.0383 5.97578C11.6436 5.89027 10.6671 5.8556 10.2969 5.91393ZM10.4622 7.40469C9.6529 7.62263 9.0117 8.29795 8.84287 9.11019C8.72993 9.65363 8.85663 10.2583 9.18796 10.7574L9.35051 11.0022L9.18796 11.2471C8.58765 12.1512 8.70724 13.3038 9.47756 14.0385C10.3552 14.8757 11.6428 14.8781 12.517 14.0443C13.2925 13.3046 13.4142 12.1531 12.8126 11.2471L12.6501 11.0022L12.8126 10.7574C13.3994 9.87354 13.3049 8.78339 12.5751 8.0182C12.0339 7.45077 11.1952 7.20725 10.4622 7.40469ZM10.7 8.86579C10.3962 8.99808 10.2217 9.34977 10.287 9.69797C10.3277 9.91458 10.6206 10.2075 10.8372 10.2482C11.1047 10.2984 11.3098 10.2342 11.5047 10.0393C12.0724 9.47155 11.4369 8.54478 10.7 8.86579ZM10.6876 11.8104C10.1958 12.0611 10.1344 12.7175 10.5714 13.0509C11.0096 13.3851 11.6594 13.099 11.7219 12.5445C11.7835 11.9976 11.1718 11.5634 10.6876 11.8104Z" fill="#E0E0E0"/>
</g>
</svg>
