<svg width="22" height="22" viewBox="0 0 22 22" fill="none" xmlns="http://www.w3.org/2000/svg">
<path fill-rule="evenodd" clip-rule="evenodd" d="M9.92275 0.048762C8.8752 0.147254 7.52607 0.506281 6.5218 0.953712C4.01755 2.06954 1.98444 4.12099 0.916714 6.60933C-0.768559 10.5369 -0.0995667 14.9509 2.67113 18.1847C5.22394 21.1642 9.26403 22.5619 13.1095 21.796C16.6846 21.084 19.6738 18.6847 21.0832 15.396C22.7575 11.4889 22.1097 7.11486 19.3762 3.86977C17.0855 1.15042 13.5224 -0.289769 9.92275 0.048762ZM10.2437 1.49101C10.1681 1.50142 9.92046 1.5332 9.69348 1.56163C8.7579 1.67883 7.74373 1.99109 6.80201 2.45195C4.88972 3.38781 3.37085 4.90677 2.44751 6.80668C2.00751 7.71209 1.75105 8.51699 1.57048 9.55982C1.45984 10.1985 1.45984 11.8059 1.57048 12.4446C1.7516 13.4905 2.00861 14.296 2.44884 15.1977C4.54399 19.4891 9.48953 21.5536 14.0378 20.0355C18.7425 18.4651 21.4601 13.4784 20.2381 8.6578C19.5505 5.94506 17.7021 3.66939 15.1958 2.4498C14.2934 2.01066 13.4677 1.74719 12.4669 1.57905C12.0555 1.50991 10.5418 1.44998 10.2437 1.49101ZM10.3583 4.4255C10.2953 4.4365 10.089 4.46846 9.89982 4.49643C8.62502 4.68507 7.32959 5.35847 6.34348 6.34513C5.40588 7.28323 4.8065 8.38333 4.5295 9.67445C4.39313 10.31 4.38002 11.5908 4.50355 12.2068C4.77399 13.5552 5.3841 14.7002 6.34321 15.6593C7.30249 16.6186 8.44968 17.2297 9.79574 17.4986C10.3545 17.6102 11.6461 17.6102 12.2048 17.4986C13.5509 17.2297 14.6981 16.6186 15.6574 15.6593C16.6167 14.7 17.2278 13.5528 17.4967 12.2068C17.6087 11.6463 17.6083 10.3565 17.4961 9.79417C17.2264 8.44353 16.626 7.31812 15.6559 6.34504C14.7177 5.40386 13.6234 4.8069 12.3391 4.53568C11.9128 4.44563 10.6458 4.37515 10.3583 4.4255ZM10.2969 5.91393C8.96988 6.12311 7.80229 6.7899 6.99106 7.80196C6.58155 8.31285 6.18492 9.12179 6.01779 9.78711C5.90774 10.225 5.89096 10.3821 5.89027 10.9793C5.88981 11.3684 5.91499 11.7865 5.94828 11.9422C6.3676 13.9042 7.72915 15.3963 9.58399 15.9265C10.8604 16.2913 12.0725 16.1801 13.27 15.5882C16.3204 14.0806 17.0768 10.1678 14.819 7.57513C14.1558 6.81356 13.0985 6.20546 12.0383 5.97578C11.6436 5.89027 10.6671 5.8556 10.2969 5.91393ZM10.4622 7.40469C9.6529 7.62263 9.0117 8.29795 8.84287 9.11019C8.72993 9.65363 8.85663 10.2583 9.18796 10.7574L9.35051 11.0022L9.18796 11.2471C8.58765 12.1512 8.70724 13.3038 9.47756 14.0385C10.3552 14.8757 11.6428 14.8781 12.517 14.0443C13.2925 13.3046 13.4142 12.1531 12.8126 11.2471L12.6501 11.0022L12.8126 10.7574C13.3994 9.87354 13.3049 8.78339 12.5751 8.0182C12.0339 7.45077 11.1952 7.20725 10.4622 7.40469ZM10.7 8.86579C10.3962 8.99808 10.2217 9.34977 10.287 9.69797C10.3277 9.91458 10.6206 10.2075 10.8372 10.2482C11.1047 10.2984 11.3098 10.2342 11.5047 10.0393C12.0724 9.47155 11.4369 8.54478 10.7 8.86579ZM10.6876 11.8104C10.1958 12.0611 10.1344 12.7175 10.5714 13.0509C11.0096 13.3851 11.6594 13.099 11.7219 12.5445C11.7835 11.9976 11.1718 11.5634 10.6876 11.8104Z" fill="#9E9E9E"/>
<mask id="mask0_2337_157285" style="mask-type:alpha" maskUnits="userSpaceOnUse" x="4" y="4" width="14" height="14">
<circle cx="11" cy="11" r="7" fill="#9E9E9E"/>
</mask>
<g mask="url(#mask0_2337_157285)">
<path fill-rule="evenodd" clip-rule="evenodd" d="M9.92275 0.048762C8.8752 0.147254 7.52607 0.506281 6.5218 0.953712C4.01755 2.06954 1.98444 4.12099 0.916714 6.60933C-0.768559 10.5369 -0.0995667 14.9509 2.67113 18.1847C5.22394 21.1642 9.26403 22.5619 13.1095 21.796C16.6846 21.084 19.6738 18.6847 21.0832 15.396C22.7575 11.4889 22.1097 7.11486 19.3762 3.86977C17.0855 1.15042 13.5224 -0.289769 9.92275 0.048762ZM10.2437 1.49101C10.1681 1.50142 9.92046 1.5332 9.69348 1.56163C8.7579 1.67883 7.74373 1.99109 6.80201 2.45195C4.88972 3.38781 3.37085 4.90677 2.44751 6.80668C2.00751 7.71209 1.75105 8.51699 1.57048 9.55982C1.45984 10.1985 1.45984 11.8059 1.57048 12.4446C1.7516 13.4905 2.00861 14.296 2.44884 15.1977C4.54399 19.4891 9.48953 21.5536 14.0378 20.0355C18.7425 18.4651 21.4601 13.4784 20.2381 8.6578C19.5505 5.94506 17.7021 3.66939 15.1958 2.4498C14.2934 2.01066 13.4677 1.74719 12.4669 1.57905C12.0555 1.50991 10.5418 1.44998 10.2437 1.49101ZM10.3583 4.4255C10.2953 4.4365 10.089 4.46846 9.89982 4.49643C8.62502 4.68507 7.32959 5.35847 6.34348 6.34513C5.40588 7.28323 4.8065 8.38333 4.5295 9.67445C4.39313 10.31 4.38002 11.5908 4.50355 12.2068C4.77399 13.5552 5.3841 14.7002 6.34321 15.6593C7.30249 16.6186 8.44968 17.2297 9.79574 17.4986C10.3545 17.6102 11.6461 17.6102 12.2048 17.4986C13.5509 17.2297 14.6981 16.6186 15.6574 15.6593C16.6167 14.7 17.2278 13.5528 17.4967 12.2068C17.6087 11.6463 17.6083 10.3565 17.4961 9.79417C17.2264 8.44353 16.626 7.31812 15.6559 6.34504C14.7177 5.40386 13.6234 4.8069 12.3391 4.53568C11.9128 4.44563 10.6458 4.37515 10.3583 4.4255ZM10.2969 5.91393C8.96988 6.12311 7.80229 6.7899 6.99106 7.80196C6.58155 8.31285 6.18492 9.12179 6.01779 9.78711C5.90774 10.225 5.89096 10.3821 5.89027 10.9793C5.88981 11.3684 5.91499 11.7865 5.94828 11.9422C6.3676 13.9042 7.72915 15.3963 9.58399 15.9265C10.8604 16.2913 12.0725 16.1801 13.27 15.5882C16.3204 14.0806 17.0768 10.1678 14.819 7.57513C14.1558 6.81356 13.0985 6.20546 12.0383 5.97578C11.6436 5.89027 10.6671 5.8556 10.2969 5.91393ZM10.4622 7.40469C9.6529 7.62263 9.0117 8.29795 8.84287 9.11019C8.72993 9.65363 8.85663 10.2583 9.18796 10.7574L9.35051 11.0022L9.18796 11.2471C8.58765 12.1512 8.70724 13.3038 9.47756 14.0385C10.3552 14.8757 11.6428 14.8781 12.517 14.0443C13.2925 13.3046 13.4142 12.1531 12.8126 11.2471L12.6501 11.0022L12.8126 10.7574C13.3994 9.87354 13.3049 8.78339 12.5751 8.0182C12.0339 7.45077 11.1952 7.20725 10.4622 7.40469ZM10.7 8.86579C10.3962 8.99808 10.2217 9.34977 10.287 9.69797C10.3277 9.91458 10.6206 10.2075 10.8372 10.2482C11.1047 10.2984 11.3098 10.2342 11.5047 10.0393C12.0724 9.47155 11.4369 8.54478 10.7 8.86579ZM10.6876 11.8104C10.1958 12.0611 10.1344 12.7175 10.5714 13.0509C11.0096 13.3851 11.6594 13.099 11.7219 12.5445C11.7835 11.9976 11.1718 11.5634 10.6876 11.8104Z" fill="#9E9E9E"/>
</g>
<mask id="mask1_2337_157285" style="mask-type:alpha" maskUnits="userSpaceOnUse" x="7" y="7" width="8" height="8">
<circle cx="11" cy="11" r="4" fill="#D9D9D9"/>
</mask>
<g mask="url(#mask1_2337_157285)">
<path fill-rule="evenodd" clip-rule="evenodd" d="M9.92275 0.048762C8.8752 0.147254 7.52607 0.506281 6.5218 0.953712C4.01755 2.06954 1.98444 4.12099 0.916714 6.60933C-0.768559 10.5369 -0.0995667 14.9509 2.67113 18.1847C5.22394 21.1642 9.26403 22.5619 13.1095 21.796C16.6846 21.084 19.6738 18.6847 21.0832 15.396C22.7575 11.4889 22.1097 7.11486 19.3762 3.86977C17.0855 1.15042 13.5224 -0.289769 9.92275 0.048762ZM10.2437 1.49101C10.1681 1.50142 9.92046 1.5332 9.69348 1.56163C8.7579 1.67883 7.74373 1.99109 6.80201 2.45195C4.88972 3.38781 3.37085 4.90677 2.44751 6.80668C2.00751 7.71209 1.75105 8.51699 1.57048 9.55982C1.45984 10.1985 1.45984 11.8059 1.57048 12.4446C1.7516 13.4905 2.00861 14.296 2.44884 15.1977C4.54399 19.4891 9.48953 21.5536 14.0378 20.0355C18.7425 18.4651 21.4601 13.4784 20.2381 8.6578C19.5505 5.94506 17.7021 3.66939 15.1958 2.4498C14.2934 2.01066 13.4677 1.74719 12.4669 1.57905C12.0555 1.50991 10.5418 1.44998 10.2437 1.49101ZM10.3583 4.4255C10.2953 4.4365 10.089 4.46846 9.89982 4.49643C8.62502 4.68507 7.32959 5.35847 6.34348 6.34513C5.40588 7.28323 4.8065 8.38333 4.5295 9.67445C4.39313 10.31 4.38002 11.5908 4.50355 12.2068C4.77399 13.5552 5.3841 14.7002 6.34321 15.6593C7.30249 16.6186 8.44968 17.2297 9.79574 17.4986C10.3545 17.6102 11.6461 17.6102 12.2048 17.4986C13.5509 17.2297 14.6981 16.6186 15.6574 15.6593C16.6167 14.7 17.2278 13.5528 17.4967 12.2068C17.6087 11.6463 17.6083 10.3565 17.4961 9.79417C17.2264 8.44353 16.626 7.31812 15.6559 6.34504C14.7177 5.40386 13.6234 4.8069 12.3391 4.53568C11.9128 4.44563 10.6458 4.37515 10.3583 4.4255ZM10.2969 5.91393C8.96988 6.12311 7.80229 6.7899 6.99106 7.80196C6.58155 8.31285 6.18492 9.12179 6.01779 9.78711C5.90774 10.225 5.89096 10.3821 5.89027 10.9793C5.88981 11.3684 5.91499 11.7865 5.94828 11.9422C6.3676 13.9042 7.72915 15.3963 9.58399 15.9265C10.8604 16.2913 12.0725 16.1801 13.27 15.5882C16.3204 14.0806 17.0768 10.1678 14.819 7.57513C14.1558 6.81356 13.0985 6.20546 12.0383 5.97578C11.6436 5.89027 10.6671 5.8556 10.2969 5.91393ZM10.4622 7.40469C9.6529 7.62263 9.0117 8.29795 8.84287 9.11019C8.72993 9.65363 8.85663 10.2583 9.18796 10.7574L9.35051 11.0022L9.18796 11.2471C8.58765 12.1512 8.70724 13.3038 9.47756 14.0385C10.3552 14.8757 11.6428 14.8781 12.517 14.0443C13.2925 13.3046 13.4142 12.1531 12.8126 11.2471L12.6501 11.0022L12.8126 10.7574C13.3994 9.87354 13.3049 8.78339 12.5751 8.0182C12.0339 7.45077 11.1952 7.20725 10.4622 7.40469ZM10.7 8.86579C10.3962 8.99808 10.2217 9.34977 10.287 9.69797C10.3277 9.91458 10.6206 10.2075 10.8372 10.2482C11.1047 10.2984 11.3098 10.2342 11.5047 10.0393C12.0724 9.47155 11.4369 8.54478 10.7 8.86579ZM10.6876 11.8104C10.1958 12.0611 10.1344 12.7175 10.5714 13.0509C11.0096 13.3851 11.6594 13.099 11.7219 12.5445C11.7835 11.9976 11.1718 11.5634 10.6876 11.8104Z" fill="#E0E0E0"/>
</g>
<circle cx="11.5" cy="11.4971" r="9.5" fill="#1D6BF5"/>
<path fill-rule="evenodd" clip-rule="evenodd" d="M9.92274 0.0458323C8.87519 0.144324 7.52607 0.503351 6.5218 0.950783C4.01755 2.06661 1.98444 4.11806 0.916714 6.6064C-0.768559 10.534 -0.0995667 14.948 2.67113 18.1818C5.22394 21.1613 9.26402 22.559 13.1095 21.7931C16.6846 21.0811 19.6738 18.6818 21.0832 15.3931C22.7575 11.486 22.1097 7.11193 19.3762 3.86684C17.0855 1.14749 13.5224 -0.292699 9.92274 0.0458323ZM10.2437 1.48809C10.1681 1.49849 9.92045 1.53027 9.69348 1.5587C8.7579 1.6759 7.74373 1.98816 6.80201 2.44902C4.88972 3.38488 3.37085 4.90384 2.44751 6.80375C2.00751 7.70916 1.75105 8.51406 1.57048 9.55689C1.45984 10.1956 1.45984 11.8029 1.57048 12.4417C1.7516 13.4876 2.00861 14.2931 2.44884 15.1948C4.54399 19.4862 9.48952 21.5507 14.0377 20.0326C18.7425 18.4622 21.4601 13.4755 20.2381 8.65487C19.5504 5.94213 17.7021 3.66646 15.1958 2.44687C14.2934 2.00773 13.4677 1.74426 12.4669 1.57612C12.0554 1.50698 10.5418 1.44705 10.2437 1.48809ZM10.3586 6.1284C10.2955 6.1394 10.0892 6.17136 9.90007 6.19933C8.62527 6.38797 7.32983 7.06137 6.34373 8.04803C5.40613 8.98613 4.80674 10.0862 4.52974 11.3773C4.39338 12.0129 4.38026 13.2937 4.50379 13.9097C4.77423 15.2581 5.38435 16.4031 6.34345 17.3622C7.30274 18.3215 8.44993 18.9326 9.79598 19.2015C10.3547 19.3131 11.6464 19.3131 12.2051 19.2015C13.5511 18.9326 14.6983 18.3215 15.6576 17.3622C16.6169 16.4029 17.2281 15.2557 17.497 13.9097C17.6089 13.3492 17.6086 12.0594 17.4963 11.4971C17.2266 10.1464 16.6262 9.02102 15.6561 8.04793C14.7179 7.10676 13.6236 6.5098 12.3394 6.23858C11.9131 6.14853 10.646 6.07805 10.3586 6.1284ZM10.2971 7.61683C8.97013 7.82601 7.80253 8.4928 6.9913 9.50486C6.58179 10.0158 6.18517 10.8247 6.01803 11.49C5.90799 11.9279 5.8912 12.085 5.89052 12.6822C5.89006 13.0713 5.91523 13.4894 5.94852 13.6451C6.36784 15.6071 7.7294 17.0992 9.58423 17.6294C10.8606 17.9942 12.0727 17.883 13.2702 17.2911C16.3207 15.7835 17.0771 11.8707 14.8192 9.27803C14.156 8.51646 13.0988 7.90836 12.0386 7.67868C11.6438 7.59316 10.6673 7.5585 10.2971 7.61683ZM10.4625 9.10759C9.65315 9.32553 9.01194 10.0008 8.84311 10.8131C8.73018 11.3565 8.85687 11.9612 9.1882 12.4603L9.35075 12.7051L9.1882 12.95C8.5879 13.8541 8.70748 15.0067 9.47781 15.7414C10.3555 16.5786 11.643 16.581 12.5173 15.7472C13.2927 15.0075 13.4144 13.856 12.8129 12.95L12.6503 12.7051L12.8129 12.4603C13.3997 11.5764 13.3051 10.4863 12.5753 9.7211C12.0341 9.15367 11.1955 8.91015 10.4625 9.10759ZM10.7002 10.5687C10.3965 10.701 10.222 11.0527 10.2872 11.4009C10.3279 11.6175 10.6209 11.9104 10.8375 11.9511C11.1049 12.0013 11.31 11.9371 11.5049 11.7422C12.0727 11.1744 11.4371 10.2477 10.7002 10.5687ZM10.6878 13.5133C10.196 13.764 10.1346 14.4204 10.5717 14.7538C11.0098 15.088 11.6596 14.8019 11.7222 14.2474C11.7838 13.7005 11.1721 13.2663 10.6878 13.5133Z" fill="#424242"/>
<path fill-rule="evenodd" clip-rule="evenodd" d="M9.92274 0.0458323C8.87519 0.144324 7.52607 0.503351 6.5218 0.950783C4.01755 2.06661 1.98444 4.11806 0.916714 6.6064C-0.768559 10.534 -0.0995667 14.948 2.67113 18.1818C5.22394 21.1613 9.26402 22.559 13.1095 21.7931C16.6846 21.0811 19.6738 18.6818 21.0832 15.3931C22.7575 11.486 22.1097 7.11193 19.3762 3.86684C17.0855 1.14749 13.5224 -0.292699 9.92274 0.0458323ZM10.2437 1.48809C10.1681 1.49849 9.92045 1.53027 9.69348 1.5587C8.7579 1.6759 7.74373 1.98816 6.80201 2.44902C4.88972 3.38488 3.37085 4.90384 2.44751 6.80375C2.00751 7.70916 1.75105 8.51406 1.57048 9.55689C1.45984 10.1956 1.45984 11.8029 1.57048 12.4417C1.7516 13.4876 2.00861 14.2931 2.44884 15.1948C4.54399 19.4862 9.48952 21.5507 14.0377 20.0326C18.7425 18.4622 21.4601 13.4755 20.2381 8.65487C19.5504 5.94213 17.7021 3.66646 15.1958 2.44687C14.2934 2.00773 13.4677 1.74426 12.4669 1.57612C12.0554 1.50698 10.5418 1.44705 10.2437 1.48809ZM10.3586 6.1284C10.2955 6.1394 10.0892 6.17136 9.90007 6.19933C8.62527 6.38797 7.32983 7.06137 6.34373 8.04803C5.40613 8.98613 4.80674 10.0862 4.52974 11.3773C4.39338 12.0129 4.38026 13.2937 4.50379 13.9097C4.77423 15.2581 5.38435 16.4031 6.34345 17.3622C7.30274 18.3215 8.44993 18.9326 9.79598 19.2015C10.3547 19.3131 11.6464 19.3131 12.2051 19.2015C13.5511 18.9326 14.6983 18.3215 15.6576 17.3622C16.6169 16.4029 17.2281 15.2557 17.497 13.9097C17.6089 13.3492 17.6086 12.0594 17.4963 11.4971C17.2266 10.1464 16.6262 9.02102 15.6561 8.04793C14.7179 7.10676 13.6236 6.5098 12.3394 6.23858C11.9131 6.14853 10.646 6.07805 10.3586 6.1284ZM10.2971 7.61683C8.97013 7.82601 7.80253 8.4928 6.9913 9.50486C6.58179 10.0158 6.18517 10.8247 6.01803 11.49C5.90799 11.9279 5.8912 12.085 5.89052 12.6822C5.89006 13.0713 5.91523 13.4894 5.94852 13.6451C6.36784 15.6071 7.7294 17.0992 9.58423 17.6294C10.8606 17.9942 12.0727 17.883 13.2702 17.2911C16.3207 15.7835 17.0771 11.8707 14.8192 9.27803C14.156 8.51646 13.0988 7.90836 12.0386 7.67868C11.6438 7.59316 10.6673 7.5585 10.2971 7.61683ZM10.4625 9.10759C9.65315 9.32553 9.01194 10.0008 8.84311 10.8131C8.73018 11.3565 8.85687 11.9612 9.1882 12.4603L9.35075 12.7051L9.1882 12.95C8.5879 13.8541 8.70748 15.0067 9.47781 15.7414C10.3555 16.5786 11.643 16.581 12.5173 15.7472C13.2927 15.0075 13.4144 13.856 12.8129 12.95L12.6503 12.7051L12.8129 12.4603C13.3997 11.5764 13.3051 10.4863 12.5753 9.7211C12.0341 9.15367 11.1955 8.91015 10.4625 9.10759ZM10.7002 10.5687C10.3965 10.701 10.222 11.0527 10.2872 11.4009C10.3279 11.6175 10.6209 11.9104 10.8375 11.9511C11.1049 12.0013 11.31 11.9371 11.5049 11.7422C12.0727 11.1744 11.4371 10.2477 10.7002 10.5687ZM10.6878 13.5133C10.196 13.764 10.1346 14.4204 10.5717 14.7538C11.0098 15.088 11.6596 14.8019 11.7222 14.2474C11.7838 13.7005 11.1721 13.2663 10.6878 13.5133Z" fill="black" fill-opacity="0.2"/>
<path fill-rule="evenodd" clip-rule="evenodd" d="M9.92274 0.0458323C8.87519 0.144324 7.52607 0.503351 6.5218 0.950783C4.01755 2.06661 1.98444 4.11806 0.916714 6.6064C-0.768559 10.534 -0.0995667 14.948 2.67113 18.1818C5.22394 21.1613 9.26402 22.559 13.1095 21.7931C16.6846 21.0811 19.6738 18.6818 21.0832 15.3931C22.7575 11.486 22.1097 7.11193 19.3762 3.86684C17.0855 1.14749 13.5224 -0.292699 9.92274 0.0458323ZM10.2437 1.48809C10.1681 1.49849 9.92045 1.53027 9.69348 1.5587C8.7579 1.6759 7.74373 1.98816 6.80201 2.44902C4.88972 3.38488 3.37085 4.90384 2.44751 6.80375C2.00751 7.70916 1.75105 8.51406 1.57048 9.55689C1.45984 10.1956 1.45984 11.8029 1.57048 12.4417C1.7516 13.4876 2.00861 14.2931 2.44884 15.1948C4.54399 19.4862 9.48952 21.5507 14.0377 20.0326C18.7425 18.4622 21.4601 13.4755 20.2381 8.65487C19.5504 5.94213 17.7021 3.66646 15.1958 2.44687C14.2934 2.00773 13.4677 1.74426 12.4669 1.57612C12.0554 1.50698 10.5418 1.44705 10.2437 1.48809ZM10.3586 6.1284C10.2955 6.1394 10.0892 6.17136 9.90007 6.19933C8.62527 6.38797 7.32983 7.06137 6.34373 8.04803C5.40613 8.98613 4.80674 10.0862 4.52974 11.3773C4.39338 12.0129 4.38026 13.2937 4.50379 13.9097C4.77423 15.2581 5.38435 16.4031 6.34345 17.3622C7.30274 18.3215 8.44993 18.9326 9.79598 19.2015C10.3547 19.3131 11.6464 19.3131 12.2051 19.2015C13.5511 18.9326 14.6983 18.3215 15.6576 17.3622C16.6169 16.4029 17.2281 15.2557 17.497 13.9097C17.6089 13.3492 17.6086 12.0594 17.4963 11.4971C17.2266 10.1464 16.6262 9.02102 15.6561 8.04793C14.7179 7.10676 13.6236 6.5098 12.3394 6.23858C11.9131 6.14853 10.646 6.07805 10.3586 6.1284ZM10.2971 7.61683C8.97013 7.82601 7.80253 8.4928 6.9913 9.50486C6.58179 10.0158 6.18517 10.8247 6.01803 11.49C5.90799 11.9279 5.8912 12.085 5.89052 12.6822C5.89006 13.0713 5.91523 13.4894 5.94852 13.6451C6.36784 15.6071 7.7294 17.0992 9.58423 17.6294C10.8606 17.9942 12.0727 17.883 13.2702 17.2911C16.3207 15.7835 17.0771 11.8707 14.8192 9.27803C14.156 8.51646 13.0988 7.90836 12.0386 7.67868C11.6438 7.59316 10.6673 7.5585 10.2971 7.61683ZM10.4625 9.10759C9.65315 9.32553 9.01194 10.0008 8.84311 10.8131C8.73018 11.3565 8.85687 11.9612 9.1882 12.4603L9.35075 12.7051L9.1882 12.95C8.5879 13.8541 8.70748 15.0067 9.47781 15.7414C10.3555 16.5786 11.643 16.581 12.5173 15.7472C13.2927 15.0075 13.4144 13.856 12.8129 12.95L12.6503 12.7051L12.8129 12.4603C13.3997 11.5764 13.3051 10.4863 12.5753 9.7211C12.0341 9.15367 11.1955 8.91015 10.4625 9.10759ZM10.7002 10.5687C10.3965 10.701 10.222 11.0527 10.2872 11.4009C10.3279 11.6175 10.6209 11.9104 10.8375 11.9511C11.1049 12.0013 11.31 11.9371 11.5049 11.7422C12.0727 11.1744 11.4371 10.2477 10.7002 10.5687ZM10.6878 13.5133C10.196 13.764 10.1346 14.4204 10.5717 14.7538C11.0098 15.088 11.6596 14.8019 11.7222 14.2474C11.7838 13.7005 11.1721 13.2663 10.6878 13.5133Z" fill="black" fill-opacity="0.2"/>
<path fill-rule="evenodd" clip-rule="evenodd" d="M9.92274 0.0458323C8.87519 0.144324 7.52607 0.503351 6.5218 0.950783C4.01755 2.06661 1.98444 4.11806 0.916714 6.6064C-0.768559 10.534 -0.0995667 14.948 2.67113 18.1818C5.22394 21.1613 9.26402 22.559 13.1095 21.7931C16.6846 21.0811 19.6738 18.6818 21.0832 15.3931C22.7575 11.486 22.1097 7.11193 19.3762 3.86684C17.0855 1.14749 13.5224 -0.292699 9.92274 0.0458323ZM10.2437 1.48809C10.1681 1.49849 9.92045 1.53027 9.69348 1.5587C8.7579 1.6759 7.74373 1.98816 6.80201 2.44902C4.88972 3.38488 3.37085 4.90384 2.44751 6.80375C2.00751 7.70916 1.75105 8.51406 1.57048 9.55689C1.45984 10.1956 1.45984 11.8029 1.57048 12.4417C1.7516 13.4876 2.00861 14.2931 2.44884 15.1948C4.54399 19.4862 9.48952 21.5507 14.0377 20.0326C18.7425 18.4622 21.4601 13.4755 20.2381 8.65487C19.5504 5.94213 17.7021 3.66646 15.1958 2.44687C14.2934 2.00773 13.4677 1.74426 12.4669 1.57612C12.0554 1.50698 10.5418 1.44705 10.2437 1.48809ZM10.3586 6.1284C10.2955 6.1394 10.0892 6.17136 9.90007 6.19933C8.62527 6.38797 7.32983 7.06137 6.34373 8.04803C5.40613 8.98613 4.80674 10.0862 4.52974 11.3773C4.39338 12.0129 4.38026 13.2937 4.50379 13.9097C4.77423 15.2581 5.38435 16.4031 6.34345 17.3622C7.30274 18.3215 8.44993 18.9326 9.79598 19.2015C10.3547 19.3131 11.6464 19.3131 12.2051 19.2015C13.5511 18.9326 14.6983 18.3215 15.6576 17.3622C16.6169 16.4029 17.2281 15.2557 17.497 13.9097C17.6089 13.3492 17.6086 12.0594 17.4963 11.4971C17.2266 10.1464 16.6262 9.02102 15.6561 8.04793C14.7179 7.10676 13.6236 6.5098 12.3394 6.23858C11.9131 6.14853 10.646 6.07805 10.3586 6.1284ZM10.2971 7.61683C8.97013 7.82601 7.80253 8.4928 6.9913 9.50486C6.58179 10.0158 6.18517 10.8247 6.01803 11.49C5.90799 11.9279 5.8912 12.085 5.89052 12.6822C5.89006 13.0713 5.91523 13.4894 5.94852 13.6451C6.36784 15.6071 7.7294 17.0992 9.58423 17.6294C10.8606 17.9942 12.0727 17.883 13.2702 17.2911C16.3207 15.7835 17.0771 11.8707 14.8192 9.27803C14.156 8.51646 13.0988 7.90836 12.0386 7.67868C11.6438 7.59316 10.6673 7.5585 10.2971 7.61683ZM10.4625 9.10759C9.65315 9.32553 9.01194 10.0008 8.84311 10.8131C8.73018 11.3565 8.85687 11.9612 9.1882 12.4603L9.35075 12.7051L9.1882 12.95C8.5879 13.8541 8.70748 15.0067 9.47781 15.7414C10.3555 16.5786 11.643 16.581 12.5173 15.7472C13.2927 15.0075 13.4144 13.856 12.8129 12.95L12.6503 12.7051L12.8129 12.4603C13.3997 11.5764 13.3051 10.4863 12.5753 9.7211C12.0341 9.15367 11.1955 8.91015 10.4625 9.10759ZM10.7002 10.5687C10.3965 10.701 10.222 11.0527 10.2872 11.4009C10.3279 11.6175 10.6209 11.9104 10.8375 11.9511C11.1049 12.0013 11.31 11.9371 11.5049 11.7422C12.0727 11.1744 11.4371 10.2477 10.7002 10.5687ZM10.6878 13.5133C10.196 13.764 10.1346 14.4204 10.5717 14.7538C11.0098 15.088 11.6596 14.8019 11.7222 14.2474C11.7838 13.7005 11.1721 13.2663 10.6878 13.5133Z" fill="black" fill-opacity="0.2"/>
<path fill-rule="evenodd" clip-rule="evenodd" d="M9.92274 0.0458323C8.87519 0.144324 7.52607 0.503351 6.5218 0.950783C4.01755 2.06661 1.98444 4.11806 0.916714 6.6064C-0.768559 10.534 -0.0995667 14.948 2.67113 18.1818C5.22394 21.1613 9.26402 22.559 13.1095 21.7931C16.6846 21.0811 19.6738 18.6818 21.0832 15.3931C22.7575 11.486 22.1097 7.11193 19.3762 3.86684C17.0855 1.14749 13.5224 -0.292699 9.92274 0.0458323ZM10.2437 1.48809C10.1681 1.49849 9.92045 1.53027 9.69348 1.5587C8.7579 1.6759 7.74373 1.98816 6.80201 2.44902C4.88972 3.38488 3.37085 4.90384 2.44751 6.80375C2.00751 7.70916 1.75105 8.51406 1.57048 9.55689C1.45984 10.1956 1.45984 11.8029 1.57048 12.4417C1.7516 13.4876 2.00861 14.2931 2.44884 15.1948C4.54399 19.4862 9.48952 21.5507 14.0377 20.0326C18.7425 18.4622 21.4601 13.4755 20.2381 8.65487C19.5504 5.94213 17.7021 3.66646 15.1958 2.44687C14.2934 2.00773 13.4677 1.74426 12.4669 1.57612C12.0554 1.50698 10.5418 1.44705 10.2437 1.48809ZM10.3586 6.1284C10.2955 6.1394 10.0892 6.17136 9.90007 6.19933C8.62527 6.38797 7.32983 7.06137 6.34373 8.04803C5.40613 8.98613 4.80674 10.0862 4.52974 11.3773C4.39338 12.0129 4.38026 13.2937 4.50379 13.9097C4.77423 15.2581 5.38435 16.4031 6.34345 17.3622C7.30274 18.3215 8.44993 18.9326 9.79598 19.2015C10.3547 19.3131 11.6464 19.3131 12.2051 19.2015C13.5511 18.9326 14.6983 18.3215 15.6576 17.3622C16.6169 16.4029 17.2281 15.2557 17.497 13.9097C17.6089 13.3492 17.6086 12.0594 17.4963 11.4971C17.2266 10.1464 16.6262 9.02102 15.6561 8.04793C14.7179 7.10676 13.6236 6.5098 12.3394 6.23858C11.9131 6.14853 10.646 6.07805 10.3586 6.1284ZM10.2971 7.61683C8.97013 7.82601 7.80253 8.4928 6.9913 9.50486C6.58179 10.0158 6.18517 10.8247 6.01803 11.49C5.90799 11.9279 5.8912 12.085 5.89052 12.6822C5.89006 13.0713 5.91523 13.4894 5.94852 13.6451C6.36784 15.6071 7.7294 17.0992 9.58423 17.6294C10.8606 17.9942 12.0727 17.883 13.2702 17.2911C16.3207 15.7835 17.0771 11.8707 14.8192 9.27803C14.156 8.51646 13.0988 7.90836 12.0386 7.67868C11.6438 7.59316 10.6673 7.5585 10.2971 7.61683ZM10.4625 9.10759C9.65315 9.32553 9.01194 10.0008 8.84311 10.8131C8.73018 11.3565 8.85687 11.9612 9.1882 12.4603L9.35075 12.7051L9.1882 12.95C8.5879 13.8541 8.70748 15.0067 9.47781 15.7414C10.3555 16.5786 11.643 16.581 12.5173 15.7472C13.2927 15.0075 13.4144 13.856 12.8129 12.95L12.6503 12.7051L12.8129 12.4603C13.3997 11.5764 13.3051 10.4863 12.5753 9.7211C12.0341 9.15367 11.1955 8.91015 10.4625 9.10759ZM10.7002 10.5687C10.3965 10.701 10.222 11.0527 10.2872 11.4009C10.3279 11.6175 10.6209 11.9104 10.8375 11.9511C11.1049 12.0013 11.31 11.9371 11.5049 11.7422C12.0727 11.1744 11.4371 10.2477 10.7002 10.5687ZM10.6878 13.5133C10.196 13.764 10.1346 14.4204 10.5717 14.7538C11.0098 15.088 11.6596 14.8019 11.7222 14.2474C11.7838 13.7005 11.1721 13.2663 10.6878 13.5133Z" fill="black" fill-opacity="0.2"/>
<path fill-rule="evenodd" clip-rule="evenodd" d="M9.92274 0.0458323C8.87519 0.144324 7.52607 0.503351 6.5218 0.950783C4.01755 2.06661 1.98444 4.11806 0.916714 6.6064C-0.768559 10.534 -0.0995667 14.948 2.67113 18.1818C5.22394 21.1613 9.26402 22.559 13.1095 21.7931C16.6846 21.0811 19.6738 18.6818 21.0832 15.3931C22.7575 11.486 22.1097 7.11193 19.3762 3.86684C17.0855 1.14749 13.5224 -0.292699 9.92274 0.0458323ZM10.2437 1.48809C10.1681 1.49849 9.92045 1.53027 9.69348 1.5587C8.7579 1.6759 7.74373 1.98816 6.80201 2.44902C4.88972 3.38488 3.37085 4.90384 2.44751 6.80375C2.00751 7.70916 1.75105 8.51406 1.57048 9.55689C1.45984 10.1956 1.45984 11.8029 1.57048 12.4417C1.7516 13.4876 2.00861 14.2931 2.44884 15.1948C4.54399 19.4862 9.48952 21.5507 14.0377 20.0326C18.7425 18.4622 21.4601 13.4755 20.2381 8.65487C19.5504 5.94213 17.7021 3.66646 15.1958 2.44687C14.2934 2.00773 13.4677 1.74426 12.4669 1.57612C12.0554 1.50698 10.5418 1.44705 10.2437 1.48809ZM10.3586 6.1284C10.2955 6.1394 10.0892 6.17136 9.90007 6.19933C8.62527 6.38797 7.32983 7.06137 6.34373 8.04803C5.40613 8.98613 4.80674 10.0862 4.52974 11.3773C4.39338 12.0129 4.38026 13.2937 4.50379 13.9097C4.77423 15.2581 5.38435 16.4031 6.34345 17.3622C7.30274 18.3215 8.44993 18.9326 9.79598 19.2015C10.3547 19.3131 11.6464 19.3131 12.2051 19.2015C13.5511 18.9326 14.6983 18.3215 15.6576 17.3622C16.6169 16.4029 17.2281 15.2557 17.497 13.9097C17.6089 13.3492 17.6086 12.0594 17.4963 11.4971C17.2266 10.1464 16.6262 9.02102 15.6561 8.04793C14.7179 7.10676 13.6236 6.5098 12.3394 6.23858C11.9131 6.14853 10.646 6.07805 10.3586 6.1284ZM10.2971 7.61683C8.97013 7.82601 7.80253 8.4928 6.9913 9.50486C6.58179 10.0158 6.18517 10.8247 6.01803 11.49C5.90799 11.9279 5.8912 12.085 5.89052 12.6822C5.89006 13.0713 5.91523 13.4894 5.94852 13.6451C6.36784 15.6071 7.7294 17.0992 9.58423 17.6294C10.8606 17.9942 12.0727 17.883 13.2702 17.2911C16.3207 15.7835 17.0771 11.8707 14.8192 9.27803C14.156 8.51646 13.0988 7.90836 12.0386 7.67868C11.6438 7.59316 10.6673 7.5585 10.2971 7.61683ZM10.4625 9.10759C9.65315 9.32553 9.01194 10.0008 8.84311 10.8131C8.73018 11.3565 8.85687 11.9612 9.1882 12.4603L9.35075 12.7051L9.1882 12.95C8.5879 13.8541 8.70748 15.0067 9.47781 15.7414C10.3555 16.5786 11.643 16.581 12.5173 15.7472C13.2927 15.0075 13.4144 13.856 12.8129 12.95L12.6503 12.7051L12.8129 12.4603C13.3997 11.5764 13.3051 10.4863 12.5753 9.7211C12.0341 9.15367 11.1955 8.91015 10.4625 9.10759ZM10.7002 10.5687C10.3965 10.701 10.222 11.0527 10.2872 11.4009C10.3279 11.6175 10.6209 11.9104 10.8375 11.9511C11.1049 12.0013 11.31 11.9371 11.5049 11.7422C12.0727 11.1744 11.4371 10.2477 10.7002 10.5687ZM10.6878 13.5133C10.196 13.764 10.1346 14.4204 10.5717 14.7538C11.0098 15.088 11.6596 14.8019 11.7222 14.2474C11.7838 13.7005 11.1721 13.2663 10.6878 13.5133Z" fill="black" fill-opacity="0.2"/>
<path fill-rule="evenodd" clip-rule="evenodd" d="M9.92274 0.0458323C8.87519 0.144324 7.52607 0.503351 6.5218 0.950783C4.01755 2.06661 1.98444 4.11806 0.916714 6.6064C-0.768559 10.534 -0.0995667 14.948 2.67113 18.1818C5.22394 21.1613 9.26402 22.559 13.1095 21.7931C16.6846 21.0811 19.6738 18.6818 21.0832 15.3931C22.7575 11.486 22.1097 7.11193 19.3762 3.86684C17.0855 1.14749 13.5224 -0.292699 9.92274 0.0458323ZM10.2437 1.48809C10.1681 1.49849 9.92045 1.53027 9.69348 1.5587C8.7579 1.6759 7.74373 1.98816 6.80201 2.44902C4.88972 3.38488 3.37085 4.90384 2.44751 6.80375C2.00751 7.70916 1.75105 8.51406 1.57048 9.55689C1.45984 10.1956 1.45984 11.8029 1.57048 12.4417C1.7516 13.4876 2.00861 14.2931 2.44884 15.1948C4.54399 19.4862 9.48952 21.5507 14.0377 20.0326C18.7425 18.4622 21.4601 13.4755 20.2381 8.65487C19.5504 5.94213 17.7021 3.66646 15.1958 2.44687C14.2934 2.00773 13.4677 1.74426 12.4669 1.57612C12.0554 1.50698 10.5418 1.44705 10.2437 1.48809ZM10.3586 6.1284C10.2955 6.1394 10.0892 6.17136 9.90007 6.19933C8.62527 6.38797 7.32983 7.06137 6.34373 8.04803C5.40613 8.98613 4.80674 10.0862 4.52974 11.3773C4.39338 12.0129 4.38026 13.2937 4.50379 13.9097C4.77423 15.2581 5.38435 16.4031 6.34345 17.3622C7.30274 18.3215 8.44993 18.9326 9.79598 19.2015C10.3547 19.3131 11.6464 19.3131 12.2051 19.2015C13.5511 18.9326 14.6983 18.3215 15.6576 17.3622C16.6169 16.4029 17.2281 15.2557 17.497 13.9097C17.6089 13.3492 17.6086 12.0594 17.4963 11.4971C17.2266 10.1464 16.6262 9.02102 15.6561 8.04793C14.7179 7.10676 13.6236 6.5098 12.3394 6.23858C11.9131 6.14853 10.646 6.07805 10.3586 6.1284ZM10.2971 7.61683C8.97013 7.82601 7.80253 8.4928 6.9913 9.50486C6.58179 10.0158 6.18517 10.8247 6.01803 11.49C5.90799 11.9279 5.8912 12.085 5.89052 12.6822C5.89006 13.0713 5.91523 13.4894 5.94852 13.6451C6.36784 15.6071 7.7294 17.0992 9.58423 17.6294C10.8606 17.9942 12.0727 17.883 13.2702 17.2911C16.3207 15.7835 17.0771 11.8707 14.8192 9.27803C14.156 8.51646 13.0988 7.90836 12.0386 7.67868C11.6438 7.59316 10.6673 7.5585 10.2971 7.61683ZM10.4625 9.10759C9.65315 9.32553 9.01194 10.0008 8.84311 10.8131C8.73018 11.3565 8.85687 11.9612 9.1882 12.4603L9.35075 12.7051L9.1882 12.95C8.5879 13.8541 8.70748 15.0067 9.47781 15.7414C10.3555 16.5786 11.643 16.581 12.5173 15.7472C13.2927 15.0075 13.4144 13.856 12.8129 12.95L12.6503 12.7051L12.8129 12.4603C13.3997 11.5764 13.3051 10.4863 12.5753 9.7211C12.0341 9.15367 11.1955 8.91015 10.4625 9.10759ZM10.7002 10.5687C10.3965 10.701 10.222 11.0527 10.2872 11.4009C10.3279 11.6175 10.6209 11.9104 10.8375 11.9511C11.1049 12.0013 11.31 11.9371 11.5049 11.7422C12.0727 11.1744 11.4371 10.2477 10.7002 10.5687ZM10.6878 13.5133C10.196 13.764 10.1346 14.4204 10.5717 14.7538C11.0098 15.088 11.6596 14.8019 11.7222 14.2474C11.7838 13.7005 11.1721 13.2663 10.6878 13.5133Z" fill="black" fill-opacity="0.2"/>
<mask id="mask2_2337_157285" style="mask-type:alpha" maskUnits="userSpaceOnUse" x="4" y="5" width="14" height="15">
<circle cx="11" cy="12.9971" r="7" fill="#424242"/>
<circle cx="11" cy="12.9971" r="7" fill="black" fill-opacity="0.2"/>
<circle cx="11" cy="12.9971" r="7" fill="black" fill-opacity="0.2"/>
<circle cx="11" cy="12.9971" r="7" fill="black" fill-opacity="0.2"/>
<circle cx="11" cy="12.9971" r="7" fill="black" fill-opacity="0.2"/>
<circle cx="11" cy="12.9971" r="7" fill="black" fill-opacity="0.2"/>
<circle cx="11" cy="12.9971" r="7" fill="black" fill-opacity="0.2"/>
</mask>
<g mask="url(#mask2_2337_157285)">
<path fill-rule="evenodd" clip-rule="evenodd" d="M9.92274 0.0458323C8.87519 0.144324 7.52607 0.503351 6.5218 0.950783C4.01755 2.06661 1.98444 4.11806 0.916714 6.6064C-0.768559 10.534 -0.0995667 14.948 2.67113 18.1818C5.22394 21.1613 9.26402 22.559 13.1095 21.7931C16.6846 21.0811 19.6738 18.6818 21.0832 15.3931C22.7575 11.486 22.1097 7.11193 19.3762 3.86684C17.0855 1.14749 13.5224 -0.292699 9.92274 0.0458323ZM10.2437 1.48809C10.1681 1.49849 9.92045 1.53027 9.69348 1.5587C8.7579 1.6759 7.74373 1.98816 6.80201 2.44902C4.88972 3.38488 3.37085 4.90384 2.44751 6.80375C2.00751 7.70916 1.75105 8.51406 1.57048 9.55689C1.45984 10.1956 1.45984 11.8029 1.57048 12.4417C1.7516 13.4876 2.00861 14.2931 2.44884 15.1948C4.54399 19.4862 9.48952 21.5507 14.0377 20.0326C18.7425 18.4622 21.4601 13.4755 20.2381 8.65487C19.5504 5.94213 17.7021 3.66646 15.1958 2.44687C14.2934 2.00773 13.4677 1.74426 12.4669 1.57612C12.0554 1.50698 10.5418 1.44705 10.2437 1.48809ZM10.3586 6.1284C10.2955 6.1394 10.0892 6.17136 9.90007 6.19933C8.62527 6.38797 7.32983 7.06137 6.34373 8.04803C5.40613 8.98613 4.80674 10.0862 4.52974 11.3773C4.39338 12.0129 4.38026 13.2937 4.50379 13.9097C4.77423 15.2581 5.38435 16.4031 6.34345 17.3622C7.30274 18.3215 8.44993 18.9326 9.79598 19.2015C10.3547 19.3131 11.6464 19.3131 12.2051 19.2015C13.5511 18.9326 14.6983 18.3215 15.6576 17.3622C16.6169 16.4029 17.2281 15.2557 17.497 13.9097C17.6089 13.3492 17.6086 12.0594 17.4963 11.4971C17.2266 10.1464 16.6262 9.02102 15.6561 8.04793C14.7179 7.10676 13.6236 6.5098 12.3394 6.23858C11.9131 6.14853 10.646 6.07805 10.3586 6.1284ZM10.2971 7.61683C8.97013 7.82601 7.80253 8.4928 6.9913 9.50486C6.58179 10.0158 6.18517 10.8247 6.01803 11.49C5.90799 11.9279 5.8912 12.085 5.89052 12.6822C5.89006 13.0713 5.91523 13.4894 5.94852 13.6451C6.36784 15.6071 7.7294 17.0992 9.58423 17.6294C10.8606 17.9942 12.0727 17.883 13.2702 17.2911C16.3207 15.7835 17.0771 11.8707 14.8192 9.27803C14.156 8.51646 13.0988 7.90836 12.0386 7.67868C11.6438 7.59316 10.6673 7.5585 10.2971 7.61683ZM10.4625 9.10759C9.65315 9.32553 9.01194 10.0008 8.84311 10.8131C8.73018 11.3565 8.85687 11.9612 9.1882 12.4603L9.35075 12.7051L9.1882 12.95C8.5879 13.8541 8.70748 15.0067 9.47781 15.7414C10.3555 16.5786 11.643 16.581 12.5173 15.7472C13.2927 15.0075 13.4144 13.856 12.8129 12.95L12.6503 12.7051L12.8129 12.4603C13.3997 11.5764 13.3051 10.4863 12.5753 9.7211C12.0341 9.15367 11.1955 8.91015 10.4625 9.10759ZM10.7002 10.5687C10.3965 10.701 10.222 11.0527 10.2872 11.4009C10.3279 11.6175 10.6209 11.9104 10.8375 11.9511C11.1049 12.0013 11.31 11.9371 11.5049 11.7422C12.0727 11.1744 11.4371 10.2477 10.7002 10.5687ZM10.6878 13.5133C10.196 13.764 10.1346 14.4204 10.5717 14.7538C11.0098 15.088 11.6596 14.8019 11.7222 14.2474C11.7838 13.7005 11.1721 13.2663 10.6878 13.5133Z" fill="#424242"/>
<path fill-rule="evenodd" clip-rule="evenodd" d="M9.92274 0.0458323C8.87519 0.144324 7.52607 0.503351 6.5218 0.950783C4.01755 2.06661 1.98444 4.11806 0.916714 6.6064C-0.768559 10.534 -0.0995667 14.948 2.67113 18.1818C5.22394 21.1613 9.26402 22.559 13.1095 21.7931C16.6846 21.0811 19.6738 18.6818 21.0832 15.3931C22.7575 11.486 22.1097 7.11193 19.3762 3.86684C17.0855 1.14749 13.5224 -0.292699 9.92274 0.0458323ZM10.2437 1.48809C10.1681 1.49849 9.92045 1.53027 9.69348 1.5587C8.7579 1.6759 7.74373 1.98816 6.80201 2.44902C4.88972 3.38488 3.37085 4.90384 2.44751 6.80375C2.00751 7.70916 1.75105 8.51406 1.57048 9.55689C1.45984 10.1956 1.45984 11.8029 1.57048 12.4417C1.7516 13.4876 2.00861 14.2931 2.44884 15.1948C4.54399 19.4862 9.48952 21.5507 14.0377 20.0326C18.7425 18.4622 21.4601 13.4755 20.2381 8.65487C19.5504 5.94213 17.7021 3.66646 15.1958 2.44687C14.2934 2.00773 13.4677 1.74426 12.4669 1.57612C12.0554 1.50698 10.5418 1.44705 10.2437 1.48809ZM10.3586 6.1284C10.2955 6.1394 10.0892 6.17136 9.90007 6.19933C8.62527 6.38797 7.32983 7.06137 6.34373 8.04803C5.40613 8.98613 4.80674 10.0862 4.52974 11.3773C4.39338 12.0129 4.38026 13.2937 4.50379 13.9097C4.77423 15.2581 5.38435 16.4031 6.34345 17.3622C7.30274 18.3215 8.44993 18.9326 9.79598 19.2015C10.3547 19.3131 11.6464 19.3131 12.2051 19.2015C13.5511 18.9326 14.6983 18.3215 15.6576 17.3622C16.6169 16.4029 17.2281 15.2557 17.497 13.9097C17.6089 13.3492 17.6086 12.0594 17.4963 11.4971C17.2266 10.1464 16.6262 9.02102 15.6561 8.04793C14.7179 7.10676 13.6236 6.5098 12.3394 6.23858C11.9131 6.14853 10.646 6.07805 10.3586 6.1284ZM10.2971 7.61683C8.97013 7.82601 7.80253 8.4928 6.9913 9.50486C6.58179 10.0158 6.18517 10.8247 6.01803 11.49C5.90799 11.9279 5.8912 12.085 5.89052 12.6822C5.89006 13.0713 5.91523 13.4894 5.94852 13.6451C6.36784 15.6071 7.7294 17.0992 9.58423 17.6294C10.8606 17.9942 12.0727 17.883 13.2702 17.2911C16.3207 15.7835 17.0771 11.8707 14.8192 9.27803C14.156 8.51646 13.0988 7.90836 12.0386 7.67868C11.6438 7.59316 10.6673 7.5585 10.2971 7.61683ZM10.4625 9.10759C9.65315 9.32553 9.01194 10.0008 8.84311 10.8131C8.73018 11.3565 8.85687 11.9612 9.1882 12.4603L9.35075 12.7051L9.1882 12.95C8.5879 13.8541 8.70748 15.0067 9.47781 15.7414C10.3555 16.5786 11.643 16.581 12.5173 15.7472C13.2927 15.0075 13.4144 13.856 12.8129 12.95L12.6503 12.7051L12.8129 12.4603C13.3997 11.5764 13.3051 10.4863 12.5753 9.7211C12.0341 9.15367 11.1955 8.91015 10.4625 9.10759ZM10.7002 10.5687C10.3965 10.701 10.222 11.0527 10.2872 11.4009C10.3279 11.6175 10.6209 11.9104 10.8375 11.9511C11.1049 12.0013 11.31 11.9371 11.5049 11.7422C12.0727 11.1744 11.4371 10.2477 10.7002 10.5687ZM10.6878 13.5133C10.196 13.764 10.1346 14.4204 10.5717 14.7538C11.0098 15.088 11.6596 14.8019 11.7222 14.2474C11.7838 13.7005 11.1721 13.2663 10.6878 13.5133Z" fill="black" fill-opacity="0.2"/>
<path fill-rule="evenodd" clip-rule="evenodd" d="M9.92274 0.0458323C8.87519 0.144324 7.52607 0.503351 6.5218 0.950783C4.01755 2.06661 1.98444 4.11806 0.916714 6.6064C-0.768559 10.534 -0.0995667 14.948 2.67113 18.1818C5.22394 21.1613 9.26402 22.559 13.1095 21.7931C16.6846 21.0811 19.6738 18.6818 21.0832 15.3931C22.7575 11.486 22.1097 7.11193 19.3762 3.86684C17.0855 1.14749 13.5224 -0.292699 9.92274 0.0458323ZM10.2437 1.48809C10.1681 1.49849 9.92045 1.53027 9.69348 1.5587C8.7579 1.6759 7.74373 1.98816 6.80201 2.44902C4.88972 3.38488 3.37085 4.90384 2.44751 6.80375C2.00751 7.70916 1.75105 8.51406 1.57048 9.55689C1.45984 10.1956 1.45984 11.8029 1.57048 12.4417C1.7516 13.4876 2.00861 14.2931 2.44884 15.1948C4.54399 19.4862 9.48952 21.5507 14.0377 20.0326C18.7425 18.4622 21.4601 13.4755 20.2381 8.65487C19.5504 5.94213 17.7021 3.66646 15.1958 2.44687C14.2934 2.00773 13.4677 1.74426 12.4669 1.57612C12.0554 1.50698 10.5418 1.44705 10.2437 1.48809ZM10.3586 6.1284C10.2955 6.1394 10.0892 6.17136 9.90007 6.19933C8.62527 6.38797 7.32983 7.06137 6.34373 8.04803C5.40613 8.98613 4.80674 10.0862 4.52974 11.3773C4.39338 12.0129 4.38026 13.2937 4.50379 13.9097C4.77423 15.2581 5.38435 16.4031 6.34345 17.3622C7.30274 18.3215 8.44993 18.9326 9.79598 19.2015C10.3547 19.3131 11.6464 19.3131 12.2051 19.2015C13.5511 18.9326 14.6983 18.3215 15.6576 17.3622C16.6169 16.4029 17.2281 15.2557 17.497 13.9097C17.6089 13.3492 17.6086 12.0594 17.4963 11.4971C17.2266 10.1464 16.6262 9.02102 15.6561 8.04793C14.7179 7.10676 13.6236 6.5098 12.3394 6.23858C11.9131 6.14853 10.646 6.07805 10.3586 6.1284ZM10.2971 7.61683C8.97013 7.82601 7.80253 8.4928 6.9913 9.50486C6.58179 10.0158 6.18517 10.8247 6.01803 11.49C5.90799 11.9279 5.8912 12.085 5.89052 12.6822C5.89006 13.0713 5.91523 13.4894 5.94852 13.6451C6.36784 15.6071 7.7294 17.0992 9.58423 17.6294C10.8606 17.9942 12.0727 17.883 13.2702 17.2911C16.3207 15.7835 17.0771 11.8707 14.8192 9.27803C14.156 8.51646 13.0988 7.90836 12.0386 7.67868C11.6438 7.59316 10.6673 7.5585 10.2971 7.61683ZM10.4625 9.10759C9.65315 9.32553 9.01194 10.0008 8.84311 10.8131C8.73018 11.3565 8.85687 11.9612 9.1882 12.4603L9.35075 12.7051L9.1882 12.95C8.5879 13.8541 8.70748 15.0067 9.47781 15.7414C10.3555 16.5786 11.643 16.581 12.5173 15.7472C13.2927 15.0075 13.4144 13.856 12.8129 12.95L12.6503 12.7051L12.8129 12.4603C13.3997 11.5764 13.3051 10.4863 12.5753 9.7211C12.0341 9.15367 11.1955 8.91015 10.4625 9.10759ZM10.7002 10.5687C10.3965 10.701 10.222 11.0527 10.2872 11.4009C10.3279 11.6175 10.6209 11.9104 10.8375 11.9511C11.1049 12.0013 11.31 11.9371 11.5049 11.7422C12.0727 11.1744 11.4371 10.2477 10.7002 10.5687ZM10.6878 13.5133C10.196 13.764 10.1346 14.4204 10.5717 14.7538C11.0098 15.088 11.6596 14.8019 11.7222 14.2474C11.7838 13.7005 11.1721 13.2663 10.6878 13.5133Z" fill="black" fill-opacity="0.2"/>
<path fill-rule="evenodd" clip-rule="evenodd" d="M9.92274 0.0458323C8.87519 0.144324 7.52607 0.503351 6.5218 0.950783C4.01755 2.06661 1.98444 4.11806 0.916714 6.6064C-0.768559 10.534 -0.0995667 14.948 2.67113 18.1818C5.22394 21.1613 9.26402 22.559 13.1095 21.7931C16.6846 21.0811 19.6738 18.6818 21.0832 15.3931C22.7575 11.486 22.1097 7.11193 19.3762 3.86684C17.0855 1.14749 13.5224 -0.292699 9.92274 0.0458323ZM10.2437 1.48809C10.1681 1.49849 9.92045 1.53027 9.69348 1.5587C8.7579 1.6759 7.74373 1.98816 6.80201 2.44902C4.88972 3.38488 3.37085 4.90384 2.44751 6.80375C2.00751 7.70916 1.75105 8.51406 1.57048 9.55689C1.45984 10.1956 1.45984 11.8029 1.57048 12.4417C1.7516 13.4876 2.00861 14.2931 2.44884 15.1948C4.54399 19.4862 9.48952 21.5507 14.0377 20.0326C18.7425 18.4622 21.4601 13.4755 20.2381 8.65487C19.5504 5.94213 17.7021 3.66646 15.1958 2.44687C14.2934 2.00773 13.4677 1.74426 12.4669 1.57612C12.0554 1.50698 10.5418 1.44705 10.2437 1.48809ZM10.3586 6.1284C10.2955 6.1394 10.0892 6.17136 9.90007 6.19933C8.62527 6.38797 7.32983 7.06137 6.34373 8.04803C5.40613 8.98613 4.80674 10.0862 4.52974 11.3773C4.39338 12.0129 4.38026 13.2937 4.50379 13.9097C4.77423 15.2581 5.38435 16.4031 6.34345 17.3622C7.30274 18.3215 8.44993 18.9326 9.79598 19.2015C10.3547 19.3131 11.6464 19.3131 12.2051 19.2015C13.5511 18.9326 14.6983 18.3215 15.6576 17.3622C16.6169 16.4029 17.2281 15.2557 17.497 13.9097C17.6089 13.3492 17.6086 12.0594 17.4963 11.4971C17.2266 10.1464 16.6262 9.02102 15.6561 8.04793C14.7179 7.10676 13.6236 6.5098 12.3394 6.23858C11.9131 6.14853 10.646 6.07805 10.3586 6.1284ZM10.2971 7.61683C8.97013 7.82601 7.80253 8.4928 6.9913 9.50486C6.58179 10.0158 6.18517 10.8247 6.01803 11.49C5.90799 11.9279 5.8912 12.085 5.89052 12.6822C5.89006 13.0713 5.91523 13.4894 5.94852 13.6451C6.36784 15.6071 7.7294 17.0992 9.58423 17.6294C10.8606 17.9942 12.0727 17.883 13.2702 17.2911C16.3207 15.7835 17.0771 11.8707 14.8192 9.27803C14.156 8.51646 13.0988 7.90836 12.0386 7.67868C11.6438 7.59316 10.6673 7.5585 10.2971 7.61683ZM10.4625 9.10759C9.65315 9.32553 9.01194 10.0008 8.84311 10.8131C8.73018 11.3565 8.85687 11.9612 9.1882 12.4603L9.35075 12.7051L9.1882 12.95C8.5879 13.8541 8.70748 15.0067 9.47781 15.7414C10.3555 16.5786 11.643 16.581 12.5173 15.7472C13.2927 15.0075 13.4144 13.856 12.8129 12.95L12.6503 12.7051L12.8129 12.4603C13.3997 11.5764 13.3051 10.4863 12.5753 9.7211C12.0341 9.15367 11.1955 8.91015 10.4625 9.10759ZM10.7002 10.5687C10.3965 10.701 10.222 11.0527 10.2872 11.4009C10.3279 11.6175 10.6209 11.9104 10.8375 11.9511C11.1049 12.0013 11.31 11.9371 11.5049 11.7422C12.0727 11.1744 11.4371 10.2477 10.7002 10.5687ZM10.6878 13.5133C10.196 13.764 10.1346 14.4204 10.5717 14.7538C11.0098 15.088 11.6596 14.8019 11.7222 14.2474C11.7838 13.7005 11.1721 13.2663 10.6878 13.5133Z" fill="black" fill-opacity="0.2"/>
<path fill-rule="evenodd" clip-rule="evenodd" d="M9.92274 0.0458323C8.87519 0.144324 7.52607 0.503351 6.5218 0.950783C4.01755 2.06661 1.98444 4.11806 0.916714 6.6064C-0.768559 10.534 -0.0995667 14.948 2.67113 18.1818C5.22394 21.1613 9.26402 22.559 13.1095 21.7931C16.6846 21.0811 19.6738 18.6818 21.0832 15.3931C22.7575 11.486 22.1097 7.11193 19.3762 3.86684C17.0855 1.14749 13.5224 -0.292699 9.92274 0.0458323ZM10.2437 1.48809C10.1681 1.49849 9.92045 1.53027 9.69348 1.5587C8.7579 1.6759 7.74373 1.98816 6.80201 2.44902C4.88972 3.38488 3.37085 4.90384 2.44751 6.80375C2.00751 7.70916 1.75105 8.51406 1.57048 9.55689C1.45984 10.1956 1.45984 11.8029 1.57048 12.4417C1.7516 13.4876 2.00861 14.2931 2.44884 15.1948C4.54399 19.4862 9.48952 21.5507 14.0377 20.0326C18.7425 18.4622 21.4601 13.4755 20.2381 8.65487C19.5504 5.94213 17.7021 3.66646 15.1958 2.44687C14.2934 2.00773 13.4677 1.74426 12.4669 1.57612C12.0554 1.50698 10.5418 1.44705 10.2437 1.48809ZM10.3586 6.1284C10.2955 6.1394 10.0892 6.17136 9.90007 6.19933C8.62527 6.38797 7.32983 7.06137 6.34373 8.04803C5.40613 8.98613 4.80674 10.0862 4.52974 11.3773C4.39338 12.0129 4.38026 13.2937 4.50379 13.9097C4.77423 15.2581 5.38435 16.4031 6.34345 17.3622C7.30274 18.3215 8.44993 18.9326 9.79598 19.2015C10.3547 19.3131 11.6464 19.3131 12.2051 19.2015C13.5511 18.9326 14.6983 18.3215 15.6576 17.3622C16.6169 16.4029 17.2281 15.2557 17.497 13.9097C17.6089 13.3492 17.6086 12.0594 17.4963 11.4971C17.2266 10.1464 16.6262 9.02102 15.6561 8.04793C14.7179 7.10676 13.6236 6.5098 12.3394 6.23858C11.9131 6.14853 10.646 6.07805 10.3586 6.1284ZM10.2971 7.61683C8.97013 7.82601 7.80253 8.4928 6.9913 9.50486C6.58179 10.0158 6.18517 10.8247 6.01803 11.49C5.90799 11.9279 5.8912 12.085 5.89052 12.6822C5.89006 13.0713 5.91523 13.4894 5.94852 13.6451C6.36784 15.6071 7.7294 17.0992 9.58423 17.6294C10.8606 17.9942 12.0727 17.883 13.2702 17.2911C16.3207 15.7835 17.0771 11.8707 14.8192 9.27803C14.156 8.51646 13.0988 7.90836 12.0386 7.67868C11.6438 7.59316 10.6673 7.5585 10.2971 7.61683ZM10.4625 9.10759C9.65315 9.32553 9.01194 10.0008 8.84311 10.8131C8.73018 11.3565 8.85687 11.9612 9.1882 12.4603L9.35075 12.7051L9.1882 12.95C8.5879 13.8541 8.70748 15.0067 9.47781 15.7414C10.3555 16.5786 11.643 16.581 12.5173 15.7472C13.2927 15.0075 13.4144 13.856 12.8129 12.95L12.6503 12.7051L12.8129 12.4603C13.3997 11.5764 13.3051 10.4863 12.5753 9.7211C12.0341 9.15367 11.1955 8.91015 10.4625 9.10759ZM10.7002 10.5687C10.3965 10.701 10.222 11.0527 10.2872 11.4009C10.3279 11.6175 10.6209 11.9104 10.8375 11.9511C11.1049 12.0013 11.31 11.9371 11.5049 11.7422C12.0727 11.1744 11.4371 10.2477 10.7002 10.5687ZM10.6878 13.5133C10.196 13.764 10.1346 14.4204 10.5717 14.7538C11.0098 15.088 11.6596 14.8019 11.7222 14.2474C11.7838 13.7005 11.1721 13.2663 10.6878 13.5133Z" fill="black" fill-opacity="0.2"/>
<path fill-rule="evenodd" clip-rule="evenodd" d="M9.92274 0.0458323C8.87519 0.144324 7.52607 0.503351 6.5218 0.950783C4.01755 2.06661 1.98444 4.11806 0.916714 6.6064C-0.768559 10.534 -0.0995667 14.948 2.67113 18.1818C5.22394 21.1613 9.26402 22.559 13.1095 21.7931C16.6846 21.0811 19.6738 18.6818 21.0832 15.3931C22.7575 11.486 22.1097 7.11193 19.3762 3.86684C17.0855 1.14749 13.5224 -0.292699 9.92274 0.0458323ZM10.2437 1.48809C10.1681 1.49849 9.92045 1.53027 9.69348 1.5587C8.7579 1.6759 7.74373 1.98816 6.80201 2.44902C4.88972 3.38488 3.37085 4.90384 2.44751 6.80375C2.00751 7.70916 1.75105 8.51406 1.57048 9.55689C1.45984 10.1956 1.45984 11.8029 1.57048 12.4417C1.7516 13.4876 2.00861 14.2931 2.44884 15.1948C4.54399 19.4862 9.48952 21.5507 14.0377 20.0326C18.7425 18.4622 21.4601 13.4755 20.2381 8.65487C19.5504 5.94213 17.7021 3.66646 15.1958 2.44687C14.2934 2.00773 13.4677 1.74426 12.4669 1.57612C12.0554 1.50698 10.5418 1.44705 10.2437 1.48809ZM10.3586 6.1284C10.2955 6.1394 10.0892 6.17136 9.90007 6.19933C8.62527 6.38797 7.32983 7.06137 6.34373 8.04803C5.40613 8.98613 4.80674 10.0862 4.52974 11.3773C4.39338 12.0129 4.38026 13.2937 4.50379 13.9097C4.77423 15.2581 5.38435 16.4031 6.34345 17.3622C7.30274 18.3215 8.44993 18.9326 9.79598 19.2015C10.3547 19.3131 11.6464 19.3131 12.2051 19.2015C13.5511 18.9326 14.6983 18.3215 15.6576 17.3622C16.6169 16.4029 17.2281 15.2557 17.497 13.9097C17.6089 13.3492 17.6086 12.0594 17.4963 11.4971C17.2266 10.1464 16.6262 9.02102 15.6561 8.04793C14.7179 7.10676 13.6236 6.5098 12.3394 6.23858C11.9131 6.14853 10.646 6.07805 10.3586 6.1284ZM10.2971 7.61683C8.97013 7.82601 7.80253 8.4928 6.9913 9.50486C6.58179 10.0158 6.18517 10.8247 6.01803 11.49C5.90799 11.9279 5.8912 12.085 5.89052 12.6822C5.89006 13.0713 5.91523 13.4894 5.94852 13.6451C6.36784 15.6071 7.7294 17.0992 9.58423 17.6294C10.8606 17.9942 12.0727 17.883 13.2702 17.2911C16.3207 15.7835 17.0771 11.8707 14.8192 9.27803C14.156 8.51646 13.0988 7.90836 12.0386 7.67868C11.6438 7.59316 10.6673 7.5585 10.2971 7.61683ZM10.4625 9.10759C9.65315 9.32553 9.01194 10.0008 8.84311 10.8131C8.73018 11.3565 8.85687 11.9612 9.1882 12.4603L9.35075 12.7051L9.1882 12.95C8.5879 13.8541 8.70748 15.0067 9.47781 15.7414C10.3555 16.5786 11.643 16.581 12.5173 15.7472C13.2927 15.0075 13.4144 13.856 12.8129 12.95L12.6503 12.7051L12.8129 12.4603C13.3997 11.5764 13.3051 10.4863 12.5753 9.7211C12.0341 9.15367 11.1955 8.91015 10.4625 9.10759ZM10.7002 10.5687C10.3965 10.701 10.222 11.0527 10.2872 11.4009C10.3279 11.6175 10.6209 11.9104 10.8375 11.9511C11.1049 12.0013 11.31 11.9371 11.5049 11.7422C12.0727 11.1744 11.4371 10.2477 10.7002 10.5687ZM10.6878 13.5133C10.196 13.764 10.1346 14.4204 10.5717 14.7538C11.0098 15.088 11.6596 14.8019 11.7222 14.2474C11.7838 13.7005 11.1721 13.2663 10.6878 13.5133Z" fill="black" fill-opacity="0.2"/>
<path fill-rule="evenodd" clip-rule="evenodd" d="M9.92274 0.0458323C8.87519 0.144324 7.52607 0.503351 6.5218 0.950783C4.01755 2.06661 1.98444 4.11806 0.916714 6.6064C-0.768559 10.534 -0.0995667 14.948 2.67113 18.1818C5.22394 21.1613 9.26402 22.559 13.1095 21.7931C16.6846 21.0811 19.6738 18.6818 21.0832 15.3931C22.7575 11.486 22.1097 7.11193 19.3762 3.86684C17.0855 1.14749 13.5224 -0.292699 9.92274 0.0458323ZM10.2437 1.48809C10.1681 1.49849 9.92045 1.53027 9.69348 1.5587C8.7579 1.6759 7.74373 1.98816 6.80201 2.44902C4.88972 3.38488 3.37085 4.90384 2.44751 6.80375C2.00751 7.70916 1.75105 8.51406 1.57048 9.55689C1.45984 10.1956 1.45984 11.8029 1.57048 12.4417C1.7516 13.4876 2.00861 14.2931 2.44884 15.1948C4.54399 19.4862 9.48952 21.5507 14.0377 20.0326C18.7425 18.4622 21.4601 13.4755 20.2381 8.65487C19.5504 5.94213 17.7021 3.66646 15.1958 2.44687C14.2934 2.00773 13.4677 1.74426 12.4669 1.57612C12.0554 1.50698 10.5418 1.44705 10.2437 1.48809ZM10.3586 6.1284C10.2955 6.1394 10.0892 6.17136 9.90007 6.19933C8.62527 6.38797 7.32983 7.06137 6.34373 8.04803C5.40613 8.98613 4.80674 10.0862 4.52974 11.3773C4.39338 12.0129 4.38026 13.2937 4.50379 13.9097C4.77423 15.2581 5.38435 16.4031 6.34345 17.3622C7.30274 18.3215 8.44993 18.9326 9.79598 19.2015C10.3547 19.3131 11.6464 19.3131 12.2051 19.2015C13.5511 18.9326 14.6983 18.3215 15.6576 17.3622C16.6169 16.4029 17.2281 15.2557 17.497 13.9097C17.6089 13.3492 17.6086 12.0594 17.4963 11.4971C17.2266 10.1464 16.6262 9.02102 15.6561 8.04793C14.7179 7.10676 13.6236 6.5098 12.3394 6.23858C11.9131 6.14853 10.646 6.07805 10.3586 6.1284ZM10.2971 7.61683C8.97013 7.82601 7.80253 8.4928 6.9913 9.50486C6.58179 10.0158 6.18517 10.8247 6.01803 11.49C5.90799 11.9279 5.8912 12.085 5.89052 12.6822C5.89006 13.0713 5.91523 13.4894 5.94852 13.6451C6.36784 15.6071 7.7294 17.0992 9.58423 17.6294C10.8606 17.9942 12.0727 17.883 13.2702 17.2911C16.3207 15.7835 17.0771 11.8707 14.8192 9.27803C14.156 8.51646 13.0988 7.90836 12.0386 7.67868C11.6438 7.59316 10.6673 7.5585 10.2971 7.61683ZM10.4625 9.10759C9.65315 9.32553 9.01194 10.0008 8.84311 10.8131C8.73018 11.3565 8.85687 11.9612 9.1882 12.4603L9.35075 12.7051L9.1882 12.95C8.5879 13.8541 8.70748 15.0067 9.47781 15.7414C10.3555 16.5786 11.643 16.581 12.5173 15.7472C13.2927 15.0075 13.4144 13.856 12.8129 12.95L12.6503 12.7051L12.8129 12.4603C13.3997 11.5764 13.3051 10.4863 12.5753 9.7211C12.0341 9.15367 11.1955 8.91015 10.4625 9.10759ZM10.7002 10.5687C10.3965 10.701 10.222 11.0527 10.2872 11.4009C10.3279 11.6175 10.6209 11.9104 10.8375 11.9511C11.1049 12.0013 11.31 11.9371 11.5049 11.7422C12.0727 11.1744 11.4371 10.2477 10.7002 10.5687ZM10.6878 13.5133C10.196 13.764 10.1346 14.4204 10.5717 14.7538C11.0098 15.088 11.6596 14.8019 11.7222 14.2474C11.7838 13.7005 11.1721 13.2663 10.6878 13.5133Z" fill="black" fill-opacity="0.2"/>
<ellipse cx="11" cy="12.4971" rx="3" ry="4.5" fill="#1D6BF5"/>
</g>
<mask id="mask3_2337_157285" style="mask-type:alpha" maskUnits="userSpaceOnUse" x="7" y="10" width="8" height="7">
<ellipse cx="11" cy="13.9971" rx="4" ry="3" fill="white"/>
</mask>
<g mask="url(#mask3_2337_157285)">
<path fill-rule="evenodd" clip-rule="evenodd" d="M9.92274 4.28364C8.87519 4.35751 7.52607 4.62678 6.5218 4.96235C4.01755 5.79922 1.98444 7.33781 0.916714 9.20407C-0.768559 12.1498 -0.0995667 15.4603 2.67113 17.8856C5.22394 20.1202 9.26402 21.1685 13.1095 20.5941C16.6846 20.0601 19.6738 18.2606 21.0832 15.7941C22.7575 12.8638 22.1097 9.58321 19.3762 7.14939C17.0855 5.10989 13.5224 4.02974 9.92274 4.28364ZM10.2437 5.36533C10.1681 5.37314 9.92045 5.39697 9.69348 5.41829C8.7579 5.50619 7.74373 5.74038 6.80201 6.08603C4.88972 6.78793 3.37085 7.92715 2.44751 9.35208C2.00751 10.0311 1.75105 10.6348 1.57048 11.4169C1.45984 11.896 1.45984 13.1015 1.57048 13.5805C1.7516 14.365 2.00861 14.9691 2.44884 15.6454C4.54399 18.8639 9.48952 20.4123 14.0377 19.2737C18.7425 18.0959 21.4601 14.3559 20.2381 10.7404C19.5504 8.70587 17.7021 6.99911 15.1958 6.08442C14.2934 5.75507 13.4677 5.55747 12.4669 5.43136C12.0554 5.3795 10.5418 5.33455 10.2437 5.36533ZM10.3586 8.84557C10.2955 8.85382 10.0892 8.87779 9.90007 8.89877C8.62527 9.04025 7.32983 9.54529 6.34373 10.2853C5.40613 10.9889 4.80674 11.8139 4.52974 12.7823C4.39338 13.259 4.38026 14.2195 4.50379 14.6815C4.77423 15.6928 5.38435 16.5516 6.34345 17.2709C7.30274 17.9904 8.44993 18.4488 9.79598 18.6504C10.3547 18.7341 11.6464 18.7341 12.2051 18.6504C13.5511 18.4488 14.6983 17.9904 15.6576 17.2709C16.6169 16.5514 17.2281 15.6911 17.497 14.6815C17.6089 14.2611 17.6086 13.2938 17.4963 12.8721C17.2266 11.8591 16.6262 11.015 15.6561 10.2852C14.7179 9.57934 13.6236 9.13162 12.3394 8.9282C11.9131 8.86066 10.646 8.80781 10.3586 8.84557ZM10.2971 9.96189C8.97013 10.1188 7.80253 10.6189 6.9913 11.3779C6.58179 11.7611 6.18517 12.3678 6.01803 12.8668C5.90799 13.1952 5.8912 13.313 5.89052 13.7609C5.89006 14.0528 5.91523 14.3663 5.94852 14.4831C6.36784 15.9546 7.7294 17.0737 9.58423 17.4713C10.8606 17.7449 12.0727 17.6615 13.2702 17.2176C16.3207 16.0869 17.0771 13.1523 14.8192 11.2078C14.156 10.6366 13.0988 10.1805 12.0386 10.0083C11.6438 9.94414 10.6673 9.91814 10.2971 9.96189ZM10.4625 11.08C9.65315 11.2434 9.01194 11.7499 8.84311 12.3591C8.73018 12.7667 8.85687 13.2202 9.1882 13.5945L9.35075 13.7781L9.1882 13.9617C8.5879 14.6398 8.70748 15.5043 9.47781 16.0553C10.3555 16.6832 11.643 16.685 12.5173 16.0596C13.2927 15.5049 13.4144 14.6412 12.8129 13.9617L12.6503 13.7781L12.8129 13.5945C13.3997 12.9316 13.3051 12.114 12.5753 11.5401C12.0341 11.1145 11.1955 10.9319 10.4625 11.08ZM10.7002 12.1758C10.3965 12.275 10.222 12.5388 10.2872 12.7999C10.3279 12.9624 10.6209 13.1821 10.8375 13.2126C11.1049 13.2502 11.31 13.2021 11.5049 13.0559C12.0727 12.6301 11.4371 11.935 10.7002 12.1758ZM10.6878 14.3842C10.196 14.5723 10.1346 15.0646 10.5717 15.3146C11.0098 15.5653 11.6596 15.3507 11.7222 14.9348C11.7838 14.5247 11.1721 14.199 10.6878 14.3842Z" fill="white"/>
</g>
</svg>
