<svg width="22" height="22" viewBox="0 0 22 22" fill="none" xmlns="http://www.w3.org/2000/svg">
<rect x="2.5" y="6" width="19" height="15" rx="6" fill="#1D6BF5"/>
<path fill-rule="evenodd" clip-rule="evenodd" d="M7.7348 0.0597131C7.53189 0.151772 7.33007 0.401838 7.29112 0.609414C7.22203 0.97775 7.27533 1.06666 8.43286 2.51547L9.54131 3.90285L8.24584 3.93408C7.53337 3.95124 6.80658 3.99112 6.63077 4.02274C4.96485 4.32218 3.70572 4.93247 2.72031 5.91812C1.86257 6.77607 1.35383 7.7243 1.08567 8.96509C1.0091 9.31941 1 9.70613 1 12.6072C1 15.8245 1.00098 15.8573 1.11429 16.3634C1.4361 17.8005 2.04668 18.9199 3.06337 19.9366C4.07991 20.9532 5.21605 21.5724 6.64611 21.8891C7.14379 21.9993 7.17428 22 11.2042 22C15.2342 22 15.2647 21.9993 15.7624 21.8891C17.1924 21.5724 18.3286 20.9532 19.3451 19.9366C20.3535 18.9283 20.9737 17.7961 21.294 16.379C21.3975 15.9213 21.4025 15.7782 21.4201 12.827C21.4406 9.38152 21.4255 9.15309 21.1169 8.23087C20.7967 7.27369 20.3709 6.5886 19.6621 5.88975C18.8725 5.11118 17.7663 4.49573 16.6289 4.20214C15.8941 4.01242 15.4416 3.96309 14.1626 3.93314L12.8672 3.90285L13.9756 2.51547C15.1392 1.05909 15.1867 0.979176 15.1152 0.598103C15.0698 0.356054 14.7756 0.0618768 14.5336 0.0164864C14.2836 -0.0304285 14.0363 0.0242072 13.8735 0.162247C13.7984 0.225981 13.1725 0.987487 12.4828 1.85448C11.7931 2.72142 11.2178 3.4307 11.2042 3.4306C11.1907 3.4305 10.5992 2.70209 9.88973 1.81199C9.18026 0.921836 8.54277 0.156149 8.47309 0.110513C8.30525 0.000552952 7.92319 -0.0257566 7.7348 0.0597131ZM7.1641 5.55579C6.68118 5.61288 5.97563 5.79262 5.47467 5.98619C4.47775 6.37144 3.5067 7.20199 3.08073 8.03372C2.56609 9.0386 2.53821 9.29821 2.56053 12.8796L2.57844 15.7545L2.70925 16.2371C3.03829 17.451 3.67336 18.463 4.54999 19.1703C5.24226 19.7289 5.86828 20.0464 6.76291 20.2929L7.24548 20.4258H11.2042H15.163L15.6456 20.2929C16.5402 20.0464 17.1662 19.7289 17.8585 19.1703C18.734 18.4639 19.3663 17.4571 19.7007 16.2371L19.833 15.7545L19.8339 12.6318L19.8348 9.50903L19.7176 9.04362C19.5374 8.32824 19.1901 7.69268 18.6954 7.17278C17.9441 6.38324 17.0948 5.93568 15.7875 5.64018C15.3208 5.53469 15.2264 5.53213 11.4255 5.52181C9.28879 5.516 7.37113 5.5313 7.1641 5.55579ZM9.30846 9.50171C9.10934 9.59204 8.90368 9.84304 8.86803 10.0391C8.85225 10.1263 8.8458 11.3301 8.85382 12.7143C8.86798 15.1678 8.87088 15.2344 8.96973 15.3668C9.16068 15.6225 9.32031 15.7053 9.62187 15.7053C9.89908 15.7053 9.9154 15.6967 11.9419 14.4831C13.0644 13.8109 14.0533 13.1876 14.1396 13.0979C14.4165 12.8099 14.4165 12.3553 14.1396 12.0673C14.0533 11.9776 13.0658 11.3561 11.9451 10.6862C9.75843 9.37916 9.66809 9.33854 9.30846 9.50171Z" fill="#424242"/>
<path fill-rule="evenodd" clip-rule="evenodd" d="M7.7348 0.0597131C7.53189 0.151772 7.33007 0.401838 7.29112 0.609414C7.22203 0.97775 7.27533 1.06666 8.43286 2.51547L9.54131 3.90285L8.24584 3.93408C7.53337 3.95124 6.80658 3.99112 6.63077 4.02274C4.96485 4.32218 3.70572 4.93247 2.72031 5.91812C1.86257 6.77607 1.35383 7.7243 1.08567 8.96509C1.0091 9.31941 1 9.70613 1 12.6072C1 15.8245 1.00098 15.8573 1.11429 16.3634C1.4361 17.8005 2.04668 18.9199 3.06337 19.9366C4.07991 20.9532 5.21605 21.5724 6.64611 21.8891C7.14379 21.9993 7.17428 22 11.2042 22C15.2342 22 15.2647 21.9993 15.7624 21.8891C17.1924 21.5724 18.3286 20.9532 19.3451 19.9366C20.3535 18.9283 20.9737 17.7961 21.294 16.379C21.3975 15.9213 21.4025 15.7782 21.4201 12.827C21.4406 9.38152 21.4255 9.15309 21.1169 8.23087C20.7967 7.27369 20.3709 6.5886 19.6621 5.88975C18.8725 5.11118 17.7663 4.49573 16.6289 4.20214C15.8941 4.01242 15.4416 3.96309 14.1626 3.93314L12.8672 3.90285L13.9756 2.51547C15.1392 1.05909 15.1867 0.979176 15.1152 0.598103C15.0698 0.356054 14.7756 0.0618768 14.5336 0.0164864C14.2836 -0.0304285 14.0363 0.0242072 13.8735 0.162247C13.7984 0.225981 13.1725 0.987487 12.4828 1.85448C11.7931 2.72142 11.2178 3.4307 11.2042 3.4306C11.1907 3.4305 10.5992 2.70209 9.88973 1.81199C9.18026 0.921836 8.54277 0.156149 8.47309 0.110513C8.30525 0.000552952 7.92319 -0.0257566 7.7348 0.0597131ZM7.1641 5.55579C6.68118 5.61288 5.97563 5.79262 5.47467 5.98619C4.47775 6.37144 3.5067 7.20199 3.08073 8.03372C2.56609 9.0386 2.53821 9.29821 2.56053 12.8796L2.57844 15.7545L2.70925 16.2371C3.03829 17.451 3.67336 18.463 4.54999 19.1703C5.24226 19.7289 5.86828 20.0464 6.76291 20.2929L7.24548 20.4258H11.2042H15.163L15.6456 20.2929C16.5402 20.0464 17.1662 19.7289 17.8585 19.1703C18.734 18.4639 19.3663 17.4571 19.7007 16.2371L19.833 15.7545L19.8339 12.6318L19.8348 9.50903L19.7176 9.04362C19.5374 8.32824 19.1901 7.69268 18.6954 7.17278C17.9441 6.38324 17.0948 5.93568 15.7875 5.64018C15.3208 5.53469 15.2264 5.53213 11.4255 5.52181C9.28879 5.516 7.37113 5.5313 7.1641 5.55579ZM9.30846 9.50171C9.10934 9.59204 8.90368 9.84304 8.86803 10.0391C8.85225 10.1263 8.8458 11.3301 8.85382 12.7143C8.86798 15.1678 8.87088 15.2344 8.96973 15.3668C9.16068 15.6225 9.32031 15.7053 9.62187 15.7053C9.89908 15.7053 9.9154 15.6967 11.9419 14.4831C13.0644 13.8109 14.0533 13.1876 14.1396 13.0979C14.4165 12.8099 14.4165 12.3553 14.1396 12.0673C14.0533 11.9776 13.0658 11.3561 11.9451 10.6862C9.75843 9.37916 9.66809 9.33854 9.30846 9.50171Z" fill="black" fill-opacity="0.2"/>
<path fill-rule="evenodd" clip-rule="evenodd" d="M7.7348 0.0597131C7.53189 0.151772 7.33007 0.401838 7.29112 0.609414C7.22203 0.97775 7.27533 1.06666 8.43286 2.51547L9.54131 3.90285L8.24584 3.93408C7.53337 3.95124 6.80658 3.99112 6.63077 4.02274C4.96485 4.32218 3.70572 4.93247 2.72031 5.91812C1.86257 6.77607 1.35383 7.7243 1.08567 8.96509C1.0091 9.31941 1 9.70613 1 12.6072C1 15.8245 1.00098 15.8573 1.11429 16.3634C1.4361 17.8005 2.04668 18.9199 3.06337 19.9366C4.07991 20.9532 5.21605 21.5724 6.64611 21.8891C7.14379 21.9993 7.17428 22 11.2042 22C15.2342 22 15.2647 21.9993 15.7624 21.8891C17.1924 21.5724 18.3286 20.9532 19.3451 19.9366C20.3535 18.9283 20.9737 17.7961 21.294 16.379C21.3975 15.9213 21.4025 15.7782 21.4201 12.827C21.4406 9.38152 21.4255 9.15309 21.1169 8.23087C20.7967 7.27369 20.3709 6.5886 19.6621 5.88975C18.8725 5.11118 17.7663 4.49573 16.6289 4.20214C15.8941 4.01242 15.4416 3.96309 14.1626 3.93314L12.8672 3.90285L13.9756 2.51547C15.1392 1.05909 15.1867 0.979176 15.1152 0.598103C15.0698 0.356054 14.7756 0.0618768 14.5336 0.0164864C14.2836 -0.0304285 14.0363 0.0242072 13.8735 0.162247C13.7984 0.225981 13.1725 0.987487 12.4828 1.85448C11.7931 2.72142 11.2178 3.4307 11.2042 3.4306C11.1907 3.4305 10.5992 2.70209 9.88973 1.81199C9.18026 0.921836 8.54277 0.156149 8.47309 0.110513C8.30525 0.000552952 7.92319 -0.0257566 7.7348 0.0597131ZM7.1641 5.55579C6.68118 5.61288 5.97563 5.79262 5.47467 5.98619C4.47775 6.37144 3.5067 7.20199 3.08073 8.03372C2.56609 9.0386 2.53821 9.29821 2.56053 12.8796L2.57844 15.7545L2.70925 16.2371C3.03829 17.451 3.67336 18.463 4.54999 19.1703C5.24226 19.7289 5.86828 20.0464 6.76291 20.2929L7.24548 20.4258H11.2042H15.163L15.6456 20.2929C16.5402 20.0464 17.1662 19.7289 17.8585 19.1703C18.734 18.4639 19.3663 17.4571 19.7007 16.2371L19.833 15.7545L19.8339 12.6318L19.8348 9.50903L19.7176 9.04362C19.5374 8.32824 19.1901 7.69268 18.6954 7.17278C17.9441 6.38324 17.0948 5.93568 15.7875 5.64018C15.3208 5.53469 15.2264 5.53213 11.4255 5.52181C9.28879 5.516 7.37113 5.5313 7.1641 5.55579ZM9.30846 9.50171C9.10934 9.59204 8.90368 9.84304 8.86803 10.0391C8.85225 10.1263 8.8458 11.3301 8.85382 12.7143C8.86798 15.1678 8.87088 15.2344 8.96973 15.3668C9.16068 15.6225 9.32031 15.7053 9.62187 15.7053C9.89908 15.7053 9.9154 15.6967 11.9419 14.4831C13.0644 13.8109 14.0533 13.1876 14.1396 13.0979C14.4165 12.8099 14.4165 12.3553 14.1396 12.0673C14.0533 11.9776 13.0658 11.3561 11.9451 10.6862C9.75843 9.37916 9.66809 9.33854 9.30846 9.50171Z" fill="black" fill-opacity="0.2"/>
<path fill-rule="evenodd" clip-rule="evenodd" d="M7.7348 0.0597131C7.53189 0.151772 7.33007 0.401838 7.29112 0.609414C7.22203 0.97775 7.27533 1.06666 8.43286 2.51547L9.54131 3.90285L8.24584 3.93408C7.53337 3.95124 6.80658 3.99112 6.63077 4.02274C4.96485 4.32218 3.70572 4.93247 2.72031 5.91812C1.86257 6.77607 1.35383 7.7243 1.08567 8.96509C1.0091 9.31941 1 9.70613 1 12.6072C1 15.8245 1.00098 15.8573 1.11429 16.3634C1.4361 17.8005 2.04668 18.9199 3.06337 19.9366C4.07991 20.9532 5.21605 21.5724 6.64611 21.8891C7.14379 21.9993 7.17428 22 11.2042 22C15.2342 22 15.2647 21.9993 15.7624 21.8891C17.1924 21.5724 18.3286 20.9532 19.3451 19.9366C20.3535 18.9283 20.9737 17.7961 21.294 16.379C21.3975 15.9213 21.4025 15.7782 21.4201 12.827C21.4406 9.38152 21.4255 9.15309 21.1169 8.23087C20.7967 7.27369 20.3709 6.5886 19.6621 5.88975C18.8725 5.11118 17.7663 4.49573 16.6289 4.20214C15.8941 4.01242 15.4416 3.96309 14.1626 3.93314L12.8672 3.90285L13.9756 2.51547C15.1392 1.05909 15.1867 0.979176 15.1152 0.598103C15.0698 0.356054 14.7756 0.0618768 14.5336 0.0164864C14.2836 -0.0304285 14.0363 0.0242072 13.8735 0.162247C13.7984 0.225981 13.1725 0.987487 12.4828 1.85448C11.7931 2.72142 11.2178 3.4307 11.2042 3.4306C11.1907 3.4305 10.5992 2.70209 9.88973 1.81199C9.18026 0.921836 8.54277 0.156149 8.47309 0.110513C8.30525 0.000552952 7.92319 -0.0257566 7.7348 0.0597131ZM7.1641 5.55579C6.68118 5.61288 5.97563 5.79262 5.47467 5.98619C4.47775 6.37144 3.5067 7.20199 3.08073 8.03372C2.56609 9.0386 2.53821 9.29821 2.56053 12.8796L2.57844 15.7545L2.70925 16.2371C3.03829 17.451 3.67336 18.463 4.54999 19.1703C5.24226 19.7289 5.86828 20.0464 6.76291 20.2929L7.24548 20.4258H11.2042H15.163L15.6456 20.2929C16.5402 20.0464 17.1662 19.7289 17.8585 19.1703C18.734 18.4639 19.3663 17.4571 19.7007 16.2371L19.833 15.7545L19.8339 12.6318L19.8348 9.50903L19.7176 9.04362C19.5374 8.32824 19.1901 7.69268 18.6954 7.17278C17.9441 6.38324 17.0948 5.93568 15.7875 5.64018C15.3208 5.53469 15.2264 5.53213 11.4255 5.52181C9.28879 5.516 7.37113 5.5313 7.1641 5.55579ZM9.30846 9.50171C9.10934 9.59204 8.90368 9.84304 8.86803 10.0391C8.85225 10.1263 8.8458 11.3301 8.85382 12.7143C8.86798 15.1678 8.87088 15.2344 8.96973 15.3668C9.16068 15.6225 9.32031 15.7053 9.62187 15.7053C9.89908 15.7053 9.9154 15.6967 11.9419 14.4831C13.0644 13.8109 14.0533 13.1876 14.1396 13.0979C14.4165 12.8099 14.4165 12.3553 14.1396 12.0673C14.0533 11.9776 13.0658 11.3561 11.9451 10.6862C9.75843 9.37916 9.66809 9.33854 9.30846 9.50171Z" fill="black" fill-opacity="0.2"/>
<path fill-rule="evenodd" clip-rule="evenodd" d="M7.7348 0.0597131C7.53189 0.151772 7.33007 0.401838 7.29112 0.609414C7.22203 0.97775 7.27533 1.06666 8.43286 2.51547L9.54131 3.90285L8.24584 3.93408C7.53337 3.95124 6.80658 3.99112 6.63077 4.02274C4.96485 4.32218 3.70572 4.93247 2.72031 5.91812C1.86257 6.77607 1.35383 7.7243 1.08567 8.96509C1.0091 9.31941 1 9.70613 1 12.6072C1 15.8245 1.00098 15.8573 1.11429 16.3634C1.4361 17.8005 2.04668 18.9199 3.06337 19.9366C4.07991 20.9532 5.21605 21.5724 6.64611 21.8891C7.14379 21.9993 7.17428 22 11.2042 22C15.2342 22 15.2647 21.9993 15.7624 21.8891C17.1924 21.5724 18.3286 20.9532 19.3451 19.9366C20.3535 18.9283 20.9737 17.7961 21.294 16.379C21.3975 15.9213 21.4025 15.7782 21.4201 12.827C21.4406 9.38152 21.4255 9.15309 21.1169 8.23087C20.7967 7.27369 20.3709 6.5886 19.6621 5.88975C18.8725 5.11118 17.7663 4.49573 16.6289 4.20214C15.8941 4.01242 15.4416 3.96309 14.1626 3.93314L12.8672 3.90285L13.9756 2.51547C15.1392 1.05909 15.1867 0.979176 15.1152 0.598103C15.0698 0.356054 14.7756 0.0618768 14.5336 0.0164864C14.2836 -0.0304285 14.0363 0.0242072 13.8735 0.162247C13.7984 0.225981 13.1725 0.987487 12.4828 1.85448C11.7931 2.72142 11.2178 3.4307 11.2042 3.4306C11.1907 3.4305 10.5992 2.70209 9.88973 1.81199C9.18026 0.921836 8.54277 0.156149 8.47309 0.110513C8.30525 0.000552952 7.92319 -0.0257566 7.7348 0.0597131ZM7.1641 5.55579C6.68118 5.61288 5.97563 5.79262 5.47467 5.98619C4.47775 6.37144 3.5067 7.20199 3.08073 8.03372C2.56609 9.0386 2.53821 9.29821 2.56053 12.8796L2.57844 15.7545L2.70925 16.2371C3.03829 17.451 3.67336 18.463 4.54999 19.1703C5.24226 19.7289 5.86828 20.0464 6.76291 20.2929L7.24548 20.4258H11.2042H15.163L15.6456 20.2929C16.5402 20.0464 17.1662 19.7289 17.8585 19.1703C18.734 18.4639 19.3663 17.4571 19.7007 16.2371L19.833 15.7545L19.8339 12.6318L19.8348 9.50903L19.7176 9.04362C19.5374 8.32824 19.1901 7.69268 18.6954 7.17278C17.9441 6.38324 17.0948 5.93568 15.7875 5.64018C15.3208 5.53469 15.2264 5.53213 11.4255 5.52181C9.28879 5.516 7.37113 5.5313 7.1641 5.55579ZM9.30846 9.50171C9.10934 9.59204 8.90368 9.84304 8.86803 10.0391C8.85225 10.1263 8.8458 11.3301 8.85382 12.7143C8.86798 15.1678 8.87088 15.2344 8.96973 15.3668C9.16068 15.6225 9.32031 15.7053 9.62187 15.7053C9.89908 15.7053 9.9154 15.6967 11.9419 14.4831C13.0644 13.8109 14.0533 13.1876 14.1396 13.0979C14.4165 12.8099 14.4165 12.3553 14.1396 12.0673C14.0533 11.9776 13.0658 11.3561 11.9451 10.6862C9.75843 9.37916 9.66809 9.33854 9.30846 9.50171Z" fill="black" fill-opacity="0.2"/>
<path fill-rule="evenodd" clip-rule="evenodd" d="M7.7348 0.0597131C7.53189 0.151772 7.33007 0.401838 7.29112 0.609414C7.22203 0.97775 7.27533 1.06666 8.43286 2.51547L9.54131 3.90285L8.24584 3.93408C7.53337 3.95124 6.80658 3.99112 6.63077 4.02274C4.96485 4.32218 3.70572 4.93247 2.72031 5.91812C1.86257 6.77607 1.35383 7.7243 1.08567 8.96509C1.0091 9.31941 1 9.70613 1 12.6072C1 15.8245 1.00098 15.8573 1.11429 16.3634C1.4361 17.8005 2.04668 18.9199 3.06337 19.9366C4.07991 20.9532 5.21605 21.5724 6.64611 21.8891C7.14379 21.9993 7.17428 22 11.2042 22C15.2342 22 15.2647 21.9993 15.7624 21.8891C17.1924 21.5724 18.3286 20.9532 19.3451 19.9366C20.3535 18.9283 20.9737 17.7961 21.294 16.379C21.3975 15.9213 21.4025 15.7782 21.4201 12.827C21.4406 9.38152 21.4255 9.15309 21.1169 8.23087C20.7967 7.27369 20.3709 6.5886 19.6621 5.88975C18.8725 5.11118 17.7663 4.49573 16.6289 4.20214C15.8941 4.01242 15.4416 3.96309 14.1626 3.93314L12.8672 3.90285L13.9756 2.51547C15.1392 1.05909 15.1867 0.979176 15.1152 0.598103C15.0698 0.356054 14.7756 0.0618768 14.5336 0.0164864C14.2836 -0.0304285 14.0363 0.0242072 13.8735 0.162247C13.7984 0.225981 13.1725 0.987487 12.4828 1.85448C11.7931 2.72142 11.2178 3.4307 11.2042 3.4306C11.1907 3.4305 10.5992 2.70209 9.88973 1.81199C9.18026 0.921836 8.54277 0.156149 8.47309 0.110513C8.30525 0.000552952 7.92319 -0.0257566 7.7348 0.0597131ZM7.1641 5.55579C6.68118 5.61288 5.97563 5.79262 5.47467 5.98619C4.47775 6.37144 3.5067 7.20199 3.08073 8.03372C2.56609 9.0386 2.53821 9.29821 2.56053 12.8796L2.57844 15.7545L2.70925 16.2371C3.03829 17.451 3.67336 18.463 4.54999 19.1703C5.24226 19.7289 5.86828 20.0464 6.76291 20.2929L7.24548 20.4258H11.2042H15.163L15.6456 20.2929C16.5402 20.0464 17.1662 19.7289 17.8585 19.1703C18.734 18.4639 19.3663 17.4571 19.7007 16.2371L19.833 15.7545L19.8339 12.6318L19.8348 9.50903L19.7176 9.04362C19.5374 8.32824 19.1901 7.69268 18.6954 7.17278C17.9441 6.38324 17.0948 5.93568 15.7875 5.64018C15.3208 5.53469 15.2264 5.53213 11.4255 5.52181C9.28879 5.516 7.37113 5.5313 7.1641 5.55579ZM9.30846 9.50171C9.10934 9.59204 8.90368 9.84304 8.86803 10.0391C8.85225 10.1263 8.8458 11.3301 8.85382 12.7143C8.86798 15.1678 8.87088 15.2344 8.96973 15.3668C9.16068 15.6225 9.32031 15.7053 9.62187 15.7053C9.89908 15.7053 9.9154 15.6967 11.9419 14.4831C13.0644 13.8109 14.0533 13.1876 14.1396 13.0979C14.4165 12.8099 14.4165 12.3553 14.1396 12.0673C14.0533 11.9776 13.0658 11.3561 11.9451 10.6862C9.75843 9.37916 9.66809 9.33854 9.30846 9.50171Z" fill="black" fill-opacity="0.2"/>
<path fill-rule="evenodd" clip-rule="evenodd" d="M7.7348 0.0597131C7.53189 0.151772 7.33007 0.401838 7.29112 0.609414C7.22203 0.97775 7.27533 1.06666 8.43286 2.51547L9.54131 3.90285L8.24584 3.93408C7.53337 3.95124 6.80658 3.99112 6.63077 4.02274C4.96485 4.32218 3.70572 4.93247 2.72031 5.91812C1.86257 6.77607 1.35383 7.7243 1.08567 8.96509C1.0091 9.31941 1 9.70613 1 12.6072C1 15.8245 1.00098 15.8573 1.11429 16.3634C1.4361 17.8005 2.04668 18.9199 3.06337 19.9366C4.07991 20.9532 5.21605 21.5724 6.64611 21.8891C7.14379 21.9993 7.17428 22 11.2042 22C15.2342 22 15.2647 21.9993 15.7624 21.8891C17.1924 21.5724 18.3286 20.9532 19.3451 19.9366C20.3535 18.9283 20.9737 17.7961 21.294 16.379C21.3975 15.9213 21.4025 15.7782 21.4201 12.827C21.4406 9.38152 21.4255 9.15309 21.1169 8.23087C20.7967 7.27369 20.3709 6.5886 19.6621 5.88975C18.8725 5.11118 17.7663 4.49573 16.6289 4.20214C15.8941 4.01242 15.4416 3.96309 14.1626 3.93314L12.8672 3.90285L13.9756 2.51547C15.1392 1.05909 15.1867 0.979176 15.1152 0.598103C15.0698 0.356054 14.7756 0.0618768 14.5336 0.0164864C14.2836 -0.0304285 14.0363 0.0242072 13.8735 0.162247C13.7984 0.225981 13.1725 0.987487 12.4828 1.85448C11.7931 2.72142 11.2178 3.4307 11.2042 3.4306C11.1907 3.4305 10.5992 2.70209 9.88973 1.81199C9.18026 0.921836 8.54277 0.156149 8.47309 0.110513C8.30525 0.000552952 7.92319 -0.0257566 7.7348 0.0597131ZM7.1641 5.55579C6.68118 5.61288 5.97563 5.79262 5.47467 5.98619C4.47775 6.37144 3.5067 7.20199 3.08073 8.03372C2.56609 9.0386 2.53821 9.29821 2.56053 12.8796L2.57844 15.7545L2.70925 16.2371C3.03829 17.451 3.67336 18.463 4.54999 19.1703C5.24226 19.7289 5.86828 20.0464 6.76291 20.2929L7.24548 20.4258H11.2042H15.163L15.6456 20.2929C16.5402 20.0464 17.1662 19.7289 17.8585 19.1703C18.734 18.4639 19.3663 17.4571 19.7007 16.2371L19.833 15.7545L19.8339 12.6318L19.8348 9.50903L19.7176 9.04362C19.5374 8.32824 19.1901 7.69268 18.6954 7.17278C17.9441 6.38324 17.0948 5.93568 15.7875 5.64018C15.3208 5.53469 15.2264 5.53213 11.4255 5.52181C9.28879 5.516 7.37113 5.5313 7.1641 5.55579ZM9.30846 9.50171C9.10934 9.59204 8.90368 9.84304 8.86803 10.0391C8.85225 10.1263 8.8458 11.3301 8.85382 12.7143C8.86798 15.1678 8.87088 15.2344 8.96973 15.3668C9.16068 15.6225 9.32031 15.7053 9.62187 15.7053C9.89908 15.7053 9.9154 15.6967 11.9419 14.4831C13.0644 13.8109 14.0533 13.1876 14.1396 13.0979C14.4165 12.8099 14.4165 12.3553 14.1396 12.0673C14.0533 11.9776 13.0658 11.3561 11.9451 10.6862C9.75843 9.37916 9.66809 9.33854 9.30846 9.50171Z" fill="black" fill-opacity="0.2"/>
<mask id="mask0_2337_157700" style="mask-type:alpha" maskUnits="userSpaceOnUse" x="7" y="9" width="8" height="8">
<rect x="7" y="9" width="8" height="8" fill="white"/>
</mask>
<g mask="url(#mask0_2337_157700)">
<path fill-rule="evenodd" clip-rule="evenodd" d="M7.7348 0.0597131C7.53189 0.151772 7.33007 0.401838 7.29112 0.609414C7.22203 0.97775 7.27533 1.06666 8.43286 2.51547L9.54131 3.90285L8.24584 3.93408C7.53337 3.95124 6.80658 3.99112 6.63077 4.02274C4.96485 4.32218 3.70572 4.93247 2.72031 5.91812C1.86257 6.77607 1.35383 7.7243 1.08567 8.96509C1.0091 9.31941 1 9.70613 1 12.6072C1 15.8245 1.00098 15.8573 1.11429 16.3634C1.4361 17.8005 2.04668 18.9199 3.06337 19.9366C4.07991 20.9532 5.21605 21.5724 6.64611 21.8891C7.14379 21.9993 7.17428 22 11.2042 22C15.2342 22 15.2647 21.9993 15.7624 21.8891C17.1924 21.5724 18.3286 20.9532 19.3451 19.9366C20.3535 18.9283 20.9737 17.7961 21.294 16.379C21.3975 15.9213 21.4025 15.7782 21.4201 12.827C21.4406 9.38152 21.4255 9.15309 21.1169 8.23087C20.7967 7.27369 20.3709 6.5886 19.6621 5.88975C18.8725 5.11118 17.7663 4.49573 16.6289 4.20214C15.8941 4.01242 15.4416 3.96309 14.1626 3.93314L12.8672 3.90285L13.9756 2.51547C15.1392 1.05909 15.1867 0.979176 15.1152 0.598103C15.0698 0.356054 14.7756 0.0618768 14.5336 0.0164864C14.2836 -0.0304285 14.0363 0.0242072 13.8735 0.162247C13.7984 0.225981 13.1725 0.987487 12.4828 1.85448C11.7931 2.72142 11.2178 3.4307 11.2042 3.4306C11.1907 3.4305 10.5992 2.70209 9.88973 1.81199C9.18026 0.921836 8.54277 0.156149 8.47309 0.110513C8.30525 0.000552952 7.92319 -0.0257566 7.7348 0.0597131ZM7.1641 5.55579C6.68118 5.61288 5.97563 5.79262 5.47467 5.98619C4.47775 6.37144 3.5067 7.20199 3.08073 8.03372C2.56609 9.0386 2.53821 9.29821 2.56053 12.8796L2.57844 15.7545L2.70925 16.2371C3.03829 17.451 3.67336 18.463 4.54999 19.1703C5.24226 19.7289 5.86828 20.0464 6.76291 20.2929L7.24548 20.4258H11.2042H15.163L15.6456 20.2929C16.5402 20.0464 17.1662 19.7289 17.8585 19.1703C18.734 18.4639 19.3663 17.4571 19.7007 16.2371L19.833 15.7545L19.8339 12.6318L19.8348 9.50903L19.7176 9.04362C19.5374 8.32824 19.1901 7.69268 18.6954 7.17278C17.9441 6.38324 17.0948 5.93568 15.7875 5.64018C15.3208 5.53469 15.2264 5.53213 11.4255 5.52181C9.28879 5.516 7.37113 5.5313 7.1641 5.55579ZM9.30846 9.50171C9.10934 9.59204 8.90368 9.84304 8.86803 10.0391C8.85225 10.1263 8.8458 11.3301 8.85382 12.7143C8.86798 15.1678 8.87088 15.2344 8.96973 15.3668C9.16068 15.6225 9.32031 15.7053 9.62187 15.7053C9.89908 15.7053 9.9154 15.6967 11.9419 14.4831C13.0644 13.8109 14.0533 13.1876 14.1396 13.0979C14.4165 12.8099 14.4165 12.3553 14.1396 12.0673C14.0533 11.9776 13.0658 11.3561 11.9451 10.6862C9.75843 9.37916 9.66809 9.33854 9.30846 9.50171Z" fill="white"/>
</g>
</svg>
