<svg width="22" height="22" viewBox="0 0 22 22" fill="none" xmlns="http://www.w3.org/2000/svg">
<path fill-rule="evenodd" clip-rule="evenodd" d="M16.3465 18.3792C18.5563 16.7489 20 14.0554 20 11.0087C20 6.03331 16.15 2 11.4009 2C6.65172 2 2.80176 6.03331 2.80176 11.0087C2.80176 13.9553 4.15216 16.5715 6.23998 18.2151L5.85746 20.2188C5.68096 21.1434 6.38963 22.0001 7.33085 22.0001H15.2243C16.1655 22.0001 16.8742 21.1434 16.6977 20.2188L16.3465 18.3792Z" fill="#1D6BF5"/>
<mask id="path-2-inside-1_2337_157862" fill="white">
<path fill-rule="evenodd" clip-rule="evenodd" d="M16.6087 18.0172C19.1553 16.2238 20.819 13.261 20.819 9.90952C20.819 4.43665 16.3824 0 10.9095 0C5.43665 0 1 4.43665 1 9.90952C1 13.1508 2.55613 16.0285 4.96203 17.8365L4.48816 20.2059C4.30252 21.1341 5.01246 22.0001 5.95903 22.0001H15.5755C16.5221 22.0001 17.232 21.1341 17.0464 20.2059L16.6087 18.0172Z"/>
</mask>
<path d="M16.6087 18.0172L15.745 16.7908L14.9462 17.3534L15.1378 18.3114L16.6087 18.0172ZM4.96203 17.8365L6.43291 18.1307L6.61811 17.2047L5.86317 16.6374L4.96203 17.8365ZM4.48816 20.2059L5.95903 20.5001L4.48816 20.2059ZM17.0464 20.2059L18.5173 19.9117V19.9117L17.0464 20.2059ZM19.319 9.90952C19.319 12.7524 17.9098 15.2663 15.745 16.7908L17.4723 19.2436C20.4008 17.1813 22.319 13.7695 22.319 9.90952H19.319ZM10.9095 1.5C15.554 1.5 19.319 5.26507 19.319 9.90952H22.319C22.319 3.60822 17.2108 -1.5 10.9095 -1.5V1.5ZM2.5 9.90952C2.5 5.26507 6.26507 1.5 10.9095 1.5V-1.5C4.60822 -1.5 -0.5 3.60822 -0.5 9.90952H2.5ZM5.86317 16.6374C3.81806 15.1005 2.5 12.6592 2.5 9.90952H-0.5C-0.5 13.6424 1.29419 16.9566 4.0609 19.0357L5.86317 16.6374ZM5.95903 20.5001L6.43291 18.1307L3.49116 17.5424L3.01729 19.9117L5.95903 20.5001ZM5.95903 20.5001L5.95903 20.5001L3.01729 19.9117C2.64601 21.7681 4.06589 23.5001 5.95903 23.5001V20.5001ZM15.5755 20.5001H5.95903V23.5001H15.5755V20.5001ZM15.5755 20.5001V20.5001V23.5001C17.4687 23.5001 18.8886 21.7681 18.5173 19.9117L15.5755 20.5001ZM15.1378 18.3114L15.5755 20.5001L18.5173 19.9117L18.0795 17.7231L15.1378 18.3114Z" fill="#424242" mask="url(#path-2-inside-1_2337_157862)"/>
<path d="M16.6087 18.0172L15.745 16.7908L14.9462 17.3534L15.1378 18.3114L16.6087 18.0172ZM4.96203 17.8365L6.43291 18.1307L6.61811 17.2047L5.86317 16.6374L4.96203 17.8365ZM4.48816 20.2059L5.95903 20.5001L4.48816 20.2059ZM17.0464 20.2059L18.5173 19.9117V19.9117L17.0464 20.2059ZM19.319 9.90952C19.319 12.7524 17.9098 15.2663 15.745 16.7908L17.4723 19.2436C20.4008 17.1813 22.319 13.7695 22.319 9.90952H19.319ZM10.9095 1.5C15.554 1.5 19.319 5.26507 19.319 9.90952H22.319C22.319 3.60822 17.2108 -1.5 10.9095 -1.5V1.5ZM2.5 9.90952C2.5 5.26507 6.26507 1.5 10.9095 1.5V-1.5C4.60822 -1.5 -0.5 3.60822 -0.5 9.90952H2.5ZM5.86317 16.6374C3.81806 15.1005 2.5 12.6592 2.5 9.90952H-0.5C-0.5 13.6424 1.29419 16.9566 4.0609 19.0357L5.86317 16.6374ZM5.95903 20.5001L6.43291 18.1307L3.49116 17.5424L3.01729 19.9117L5.95903 20.5001ZM5.95903 20.5001L5.95903 20.5001L3.01729 19.9117C2.64601 21.7681 4.06589 23.5001 5.95903 23.5001V20.5001ZM15.5755 20.5001H5.95903V23.5001H15.5755V20.5001ZM15.5755 20.5001V20.5001V23.5001C17.4687 23.5001 18.8886 21.7681 18.5173 19.9117L15.5755 20.5001ZM15.1378 18.3114L15.5755 20.5001L18.5173 19.9117L18.0795 17.7231L15.1378 18.3114Z" fill="black" fill-opacity="0.2" mask="url(#path-2-inside-1_2337_157862)"/>
<path d="M16.6087 18.0172L15.745 16.7908L14.9462 17.3534L15.1378 18.3114L16.6087 18.0172ZM4.96203 17.8365L6.43291 18.1307L6.61811 17.2047L5.86317 16.6374L4.96203 17.8365ZM4.48816 20.2059L5.95903 20.5001L4.48816 20.2059ZM17.0464 20.2059L18.5173 19.9117V19.9117L17.0464 20.2059ZM19.319 9.90952C19.319 12.7524 17.9098 15.2663 15.745 16.7908L17.4723 19.2436C20.4008 17.1813 22.319 13.7695 22.319 9.90952H19.319ZM10.9095 1.5C15.554 1.5 19.319 5.26507 19.319 9.90952H22.319C22.319 3.60822 17.2108 -1.5 10.9095 -1.5V1.5ZM2.5 9.90952C2.5 5.26507 6.26507 1.5 10.9095 1.5V-1.5C4.60822 -1.5 -0.5 3.60822 -0.5 9.90952H2.5ZM5.86317 16.6374C3.81806 15.1005 2.5 12.6592 2.5 9.90952H-0.5C-0.5 13.6424 1.29419 16.9566 4.0609 19.0357L5.86317 16.6374ZM5.95903 20.5001L6.43291 18.1307L3.49116 17.5424L3.01729 19.9117L5.95903 20.5001ZM5.95903 20.5001L5.95903 20.5001L3.01729 19.9117C2.64601 21.7681 4.06589 23.5001 5.95903 23.5001V20.5001ZM15.5755 20.5001H5.95903V23.5001H15.5755V20.5001ZM15.5755 20.5001V20.5001V23.5001C17.4687 23.5001 18.8886 21.7681 18.5173 19.9117L15.5755 20.5001ZM15.1378 18.3114L15.5755 20.5001L18.5173 19.9117L18.0795 17.7231L15.1378 18.3114Z" fill="black" fill-opacity="0.2" mask="url(#path-2-inside-1_2337_157862)"/>
<path d="M16.6087 18.0172L15.745 16.7908L14.9462 17.3534L15.1378 18.3114L16.6087 18.0172ZM4.96203 17.8365L6.43291 18.1307L6.61811 17.2047L5.86317 16.6374L4.96203 17.8365ZM4.48816 20.2059L5.95903 20.5001L4.48816 20.2059ZM17.0464 20.2059L18.5173 19.9117V19.9117L17.0464 20.2059ZM19.319 9.90952C19.319 12.7524 17.9098 15.2663 15.745 16.7908L17.4723 19.2436C20.4008 17.1813 22.319 13.7695 22.319 9.90952H19.319ZM10.9095 1.5C15.554 1.5 19.319 5.26507 19.319 9.90952H22.319C22.319 3.60822 17.2108 -1.5 10.9095 -1.5V1.5ZM2.5 9.90952C2.5 5.26507 6.26507 1.5 10.9095 1.5V-1.5C4.60822 -1.5 -0.5 3.60822 -0.5 9.90952H2.5ZM5.86317 16.6374C3.81806 15.1005 2.5 12.6592 2.5 9.90952H-0.5C-0.5 13.6424 1.29419 16.9566 4.0609 19.0357L5.86317 16.6374ZM5.95903 20.5001L6.43291 18.1307L3.49116 17.5424L3.01729 19.9117L5.95903 20.5001ZM5.95903 20.5001L5.95903 20.5001L3.01729 19.9117C2.64601 21.7681 4.06589 23.5001 5.95903 23.5001V20.5001ZM15.5755 20.5001H5.95903V23.5001H15.5755V20.5001ZM15.5755 20.5001V20.5001V23.5001C17.4687 23.5001 18.8886 21.7681 18.5173 19.9117L15.5755 20.5001ZM15.1378 18.3114L15.5755 20.5001L18.5173 19.9117L18.0795 17.7231L15.1378 18.3114Z" fill="black" fill-opacity="0.2" mask="url(#path-2-inside-1_2337_157862)"/>
<path d="M16.6087 18.0172L15.745 16.7908L14.9462 17.3534L15.1378 18.3114L16.6087 18.0172ZM4.96203 17.8365L6.43291 18.1307L6.61811 17.2047L5.86317 16.6374L4.96203 17.8365ZM4.48816 20.2059L5.95903 20.5001L4.48816 20.2059ZM17.0464 20.2059L18.5173 19.9117V19.9117L17.0464 20.2059ZM19.319 9.90952C19.319 12.7524 17.9098 15.2663 15.745 16.7908L17.4723 19.2436C20.4008 17.1813 22.319 13.7695 22.319 9.90952H19.319ZM10.9095 1.5C15.554 1.5 19.319 5.26507 19.319 9.90952H22.319C22.319 3.60822 17.2108 -1.5 10.9095 -1.5V1.5ZM2.5 9.90952C2.5 5.26507 6.26507 1.5 10.9095 1.5V-1.5C4.60822 -1.5 -0.5 3.60822 -0.5 9.90952H2.5ZM5.86317 16.6374C3.81806 15.1005 2.5 12.6592 2.5 9.90952H-0.5C-0.5 13.6424 1.29419 16.9566 4.0609 19.0357L5.86317 16.6374ZM5.95903 20.5001L6.43291 18.1307L3.49116 17.5424L3.01729 19.9117L5.95903 20.5001ZM5.95903 20.5001L5.95903 20.5001L3.01729 19.9117C2.64601 21.7681 4.06589 23.5001 5.95903 23.5001V20.5001ZM15.5755 20.5001H5.95903V23.5001H15.5755V20.5001ZM15.5755 20.5001V20.5001V23.5001C17.4687 23.5001 18.8886 21.7681 18.5173 19.9117L15.5755 20.5001ZM15.1378 18.3114L15.5755 20.5001L18.5173 19.9117L18.0795 17.7231L15.1378 18.3114Z" fill="black" fill-opacity="0.2" mask="url(#path-2-inside-1_2337_157862)"/>
<path d="M16.6087 18.0172L15.745 16.7908L14.9462 17.3534L15.1378 18.3114L16.6087 18.0172ZM4.96203 17.8365L6.43291 18.1307L6.61811 17.2047L5.86317 16.6374L4.96203 17.8365ZM4.48816 20.2059L5.95903 20.5001L4.48816 20.2059ZM17.0464 20.2059L18.5173 19.9117V19.9117L17.0464 20.2059ZM19.319 9.90952C19.319 12.7524 17.9098 15.2663 15.745 16.7908L17.4723 19.2436C20.4008 17.1813 22.319 13.7695 22.319 9.90952H19.319ZM10.9095 1.5C15.554 1.5 19.319 5.26507 19.319 9.90952H22.319C22.319 3.60822 17.2108 -1.5 10.9095 -1.5V1.5ZM2.5 9.90952C2.5 5.26507 6.26507 1.5 10.9095 1.5V-1.5C4.60822 -1.5 -0.5 3.60822 -0.5 9.90952H2.5ZM5.86317 16.6374C3.81806 15.1005 2.5 12.6592 2.5 9.90952H-0.5C-0.5 13.6424 1.29419 16.9566 4.0609 19.0357L5.86317 16.6374ZM5.95903 20.5001L6.43291 18.1307L3.49116 17.5424L3.01729 19.9117L5.95903 20.5001ZM5.95903 20.5001L5.95903 20.5001L3.01729 19.9117C2.64601 21.7681 4.06589 23.5001 5.95903 23.5001V20.5001ZM15.5755 20.5001H5.95903V23.5001H15.5755V20.5001ZM15.5755 20.5001V20.5001V23.5001C17.4687 23.5001 18.8886 21.7681 18.5173 19.9117L15.5755 20.5001ZM15.1378 18.3114L15.5755 20.5001L18.5173 19.9117L18.0795 17.7231L15.1378 18.3114Z" fill="black" fill-opacity="0.2" mask="url(#path-2-inside-1_2337_157862)"/>
<path d="M16.6087 18.0172L15.745 16.7908L14.9462 17.3534L15.1378 18.3114L16.6087 18.0172ZM4.96203 17.8365L6.43291 18.1307L6.61811 17.2047L5.86317 16.6374L4.96203 17.8365ZM4.48816 20.2059L5.95903 20.5001L4.48816 20.2059ZM17.0464 20.2059L18.5173 19.9117V19.9117L17.0464 20.2059ZM19.319 9.90952C19.319 12.7524 17.9098 15.2663 15.745 16.7908L17.4723 19.2436C20.4008 17.1813 22.319 13.7695 22.319 9.90952H19.319ZM10.9095 1.5C15.554 1.5 19.319 5.26507 19.319 9.90952H22.319C22.319 3.60822 17.2108 -1.5 10.9095 -1.5V1.5ZM2.5 9.90952C2.5 5.26507 6.26507 1.5 10.9095 1.5V-1.5C4.60822 -1.5 -0.5 3.60822 -0.5 9.90952H2.5ZM5.86317 16.6374C3.81806 15.1005 2.5 12.6592 2.5 9.90952H-0.5C-0.5 13.6424 1.29419 16.9566 4.0609 19.0357L5.86317 16.6374ZM5.95903 20.5001L6.43291 18.1307L3.49116 17.5424L3.01729 19.9117L5.95903 20.5001ZM5.95903 20.5001L5.95903 20.5001L3.01729 19.9117C2.64601 21.7681 4.06589 23.5001 5.95903 23.5001V20.5001ZM15.5755 20.5001H5.95903V23.5001H15.5755V20.5001ZM15.5755 20.5001V20.5001V23.5001C17.4687 23.5001 18.8886 21.7681 18.5173 19.9117L15.5755 20.5001ZM15.1378 18.3114L15.5755 20.5001L18.5173 19.9117L18.0795 17.7231L15.1378 18.3114Z" fill="black" fill-opacity="0.2" mask="url(#path-2-inside-1_2337_157862)"/>
<path d="M9 12C9.66667 12.7546 11.4 13.8111 13 12" stroke="white" stroke-width="1.5" stroke-linecap="round"/>
</svg>
